<svg width="0" height="0" class="hidden">
  <symbol xmlns="http://www.w3.org/2000/svg" viewBox="0 0 18 18" id="bell">
    <title>bell</title>
    <path d="M16 11h-1V7A6 6 0 003 7v4H2a1 1 0 000 2h14a1 1 0 000-2zm-3 0H5V7c0-2.206 1.794-4 4-4s4 1.794 4 4v4zm-6 4a2 2 0 004 0v-1H7v1z"></path>
  </symbol>
  <symbol xmlns="http://www.w3.org/2000/svg" viewBox="0 0 18 18" id="book">
    <title>book</title>
    <path d="M15 1H4a2 2 0 00-2 2v12a2 2 0 002 2h11a1 1 0 001-1V2a1 1 0 00-1-1zm-1 13.5a.5.5 0 01-.5.5H4.99a.99.99 0 01-.99-.99v-.02a.99.99 0 01.99-.99h8.51a.5.5 0 01.5.5v1zm0-3.969a.5.5 0 01-.5.5h-7a.5.5 0 01-.5-.5V3.5a.5.5 0 01.5-.5h7a.5.5 0 01.5.5v7.031z"></path>
    <path d="M11.5 5h-3a.5.5 0 00-.5.5v1a.5.5 0 00.5.5h3a.5.5 0 00.5-.5v-1a.5.5 0 00-.5-.5z"></path>
  </symbol>
  <symbol xmlns="http://www.w3.org/2000/svg" viewBox="0 0 18 18" id="bookmark">
    <title>bookmark</title>
    <path d="M14 1H4a1 1 0 00-1 1v13.999a1 1 0 001.555.832l4.119-3.549a.498.498 0 01.652 0l4.119 3.549A1.001 1.001 0 0015 15.999V2a1 1 0 00-1-1zm-1 12.807l-3.674-3.166a.498.498 0 00-.652 0L5 13.807V3.5a.5.5 0 01.5-.5h7a.5.5 0 01.5.5v10.307z"></path>
  </symbol>
  <symbol xmlns="http://www.w3.org/2000/svg" viewBox="0 0 18 18" id="box">
    <title>box</title>
    <path d="M14 2a1 1 0 00-1-1H5a1 1 0 00-1 1L0 9v7a1 1 0 001 1h16a1 1 0 001-1V9l-4-7zM5.732 3h6.535l2.857 5h-3.625a.5.5 0 00-.5.5v.411c0 1.044-.761 1.978-1.8 2.079A2.003 2.003 0 016.999 9v-.5a.5.5 0 00-.5-.5H2.874l2.857-5zM16 14.5a.5.5 0 01-.5.5h-13a.5.5 0 01-.5-.5V10h3.131c.445 1.724 2.006 3 3.869 3s3.424-1.276 3.869-3H16v4.5z"></path>
  </symbol>
  <symbol xmlns="http://www.w3.org/2000/svg" viewBox="0 0 18 18" id="browser">
    <title>browser</title>
    <path d="M16 1H2a1 1 0 00-1 1v14a1 1 0 001 1h14a1 1 0 001-1V2a1 1 0 00-1-1zM3 3.5a.5.5 0 01.5-.5H5v2H3V3.5zm12 11a.5.5 0 01-.5.5h-11a.5.5 0 01-.5-.5V7h12v7.5zM15 5H7V3h7.5a.5.5 0 01.5.5V5z"></path>
  </symbol>
  <symbol xmlns="http://www.w3.org/2000/svg" viewBox="0 0 18 18" id="bubble">
    <title>bubble</title>
    <path d="M9.016 3C11.764 3 14 5.243 14 8s-2.236 5-4.97 5l-.06-.004a9.125 9.125 0 00-.165-.01l-.336-.014-3.665 1.098.629-2.483-.517-.747a4.976 4.976 0 01-.886-2.842c0-2.757 2.236-5 4.984-5zm0-2C5.159 1 2.032 4.134 2.032 8a6.97 6.97 0 001.241 3.978L2.001 17l6.722-2.015c.098.004.194.015.293.015C12.873 15 16 11.866 16 8s-3.127-7-6.984-7z"></path>
  </symbol>
  <symbol xmlns="http://www.w3.org/2000/svg" viewBox="0 0 18 18" id="bubbles">
    <title>bubbles</title>
    <path d="M16.091 9.234a5.41 5.41 0 00.886-2.984c0-2.899-2.233-5.25-4.989-5.25-2.391 0-4.386 1.771-4.873 4.134A4.74 4.74 0 006.011 5c-2.755 0-4.989 2.351-4.989 5.25 0 1.109.328 2.136.886 2.984L.999 17l4.802-1.511c.07.003.139.011.209.011 2.391 0 4.386-1.771 4.873-4.134.356.085.724.134 1.105.134.071 0 .14-.008.209-.011L16.999 13l-.909-3.766zm-7.1 1.205v.001a3.46 3.46 0 01-.17.907l-.001.005a3.055 3.055 0 01-.11.286 3.567 3.567 0 01-.12.249l-.017.029a2.795 2.795 0 01-.131.218l-.033.048a3.455 3.455 0 01-.134.184l-.058.069c-.042.05-.083.099-.127.145-.03.032-.063.062-.094.093-.036.035-.071.071-.108.104-.048.042-.098.081-.148.12-.024.019-.047.039-.072.057a2.86 2.86 0 01-.227.149l-.011.007a2.8 2.8 0 01-1.121.375l-.016.001a3.01 3.01 0 01-.254.016l-.013-.001h-.002l-.022.001c-.106 0-.212-.006-.315-.018l-.147-.007-1.763.555.079-.327.204-.844-.303-.46a3.39 3.39 0 01-.754-2.149c0-1.795 1.343-3.25 3-3.25h.011c.099 0 .197.006.293.017l.027.004c.086.01.171.024.254.042.045.01.088.023.132.034s.091.023.136.038c.055.018.108.039.162.06.024.009.049.017.073.027v.002c1.118.473 1.911 1.647 1.911 3.026 0 .064-.006.126-.009.189zm5.43-2.305l-.478.725.283 1.171-1.763-.555-.352.015a5.853 5.853 0 00-.136.008l-.013.001a2.77 2.77 0 01-1.051-.222A5.285 5.285 0 009.009 6.06c.091-1.704 1.391-3.061 2.98-3.061 1.648 0 2.989 1.458 2.989 3.25a3.41 3.41 0 01-.557 1.884z"></path>
  </symbol>
  <symbol xmlns="http://www.w3.org/2000/svg" viewBox="0 0 18 18" id="calendar">
    <title>calendar</title>
    <path d="M11.5 11H10V7.5a.5.5 0 00-.5-.5h-3a.5.5 0 00-.5.5v1a.5.5 0 00.5.5H8v2H6.5a.5.5 0 00-.5.5v1a.5.5 0 00.5.5h5a.5.5 0 00.5-.5v-1a.5.5 0 00-.5-.5zM16 1H2a1 1 0 00-1 1v14a1 1 0 001 1h14a1 1 0 001-1V2a1 1 0 00-1-1zm-1 13.5a.5.5 0 01-.5.5h-11a.5.5 0 01-.5-.5v-9a.5.5 0 01.5-.5h11a.5.5 0 01.5.5v9z"></path>
  </symbol>
  <symbol xmlns="http://www.w3.org/2000/svg" viewBox="0 0 18 18" id="camera">
    <title>camera</title>
    <path d="M17 4h-4l-1.707-1.707A1 1 0 0010.586 2H7.414a.997.997 0 00-.707.293L5 4H1a1 1 0 00-1 1v10a1 1 0 001 1h2a1 1 0 000-2h-.5a.5.5 0 01-.5-.5v-7a.5.5 0 01.5-.5h3.329l2-2h2.343l2 2h3.329a.5.5 0 01.5.5v7a.5.5 0 01-.5.5h-.5a1 1 0 00-.015 1.999V16h2.016a1 1 0 001-1V5a1 1 0 00-1-1z"></path>
    <path d="M9 9c1.103 0 2 .897 2 2s-.897 2-2 2-2-.897-2-2 .897-2 2-2zm0-2a4 4 0 100 8 4 4 0 000-8z"></path>
  </symbol>
  <symbol xmlns="http://www.w3.org/2000/svg" viewBox="0 0 18 18" id="cancel">
    <title>cancel</title>
    <path d="M9 1a8 8 0 100 16A8 8 0 009 1zM3 9c0-1.294.416-2.491 1.116-3.472l8.356 8.356A5.958 5.958 0 019 15c-3.309 0-6-2.691-6-6zm10.884 3.472L5.528 4.116A5.958 5.958 0 019 3c3.309 0 6 2.691 6 6a5.958 5.958 0 01-1.116 3.472z"></path>
  </symbol>
  <symbol xmlns="http://www.w3.org/2000/svg" viewBox="0 0 18 18" id="cart">
    <title>cart</title>
    <path d="M14.312 9a1.5 1.5 0 001.459-1.154l1.181-4.982A1.5 1.5 0 0015.497 1H2.003a1 1 0 000 2h1v8.5A1.5 1.5 0 004.502 13h10.496a1 1 0 000-2H5.002V9h9.31zm-9.31-6h9.863l-.948 4H5.002V3zm.5 11a1.5 1.5 0 100 3 1.5 1.5 0 000-3zm7.996 0a1.5 1.5 0 100 2.998 1.5 1.5 0 000-2.998z"></path>
  </symbol>
  <symbol xmlns="http://www.w3.org/2000/svg" viewBox="0 0 18 18" id="chart">
    <title>chart</title>
    <path d="M3 15V1H1v15a1 1 0 001 1h15v-2H3z"></path>
    <path d="M5.5 13h1a.5.5 0 00.5-.5v-5a.5.5 0 00-.5-.5h-1a.5.5 0 00-.5.5v5a.5.5 0 00.5.5zm3 0h1a.5.5 0 00.5-.5v-9a.5.5 0 00-.5-.5h-1a.5.5 0 00-.5.5v9a.5.5 0 00.5.5zm3 0h1a.5.5 0 00.5-.5v-3a.5.5 0 00-.5-.5h-1a.5.5 0 00-.5.5v3a.5.5 0 00.5.5zm3 0h1a.5.5 0 00.5-.5v-7a.5.5 0 00-.5-.5h-1a.5.5 0 00-.5.5v7a.5.5 0 00.5.5z"></path>
  </symbol>
  <symbol xmlns="http://www.w3.org/2000/svg" viewBox="0 0 18 18" id="clock">
    <title>clock</title>
    <path d="M9 1a8 8 0 100 16A8 8 0 009 1zm0 14c-3.309 0-6-2.692-6-6s2.691-6 6-6 6 2.692 6 6-2.691 6-6 6z"></path>
    <path d="M11.01 9H9.5a.5.5 0 01-.5-.5V6.99A.99.99 0 008.01 6h-.02a.99.99 0 00-.99.99v3.02c0 .547.443.99.99.99h3.02a.99.99 0 00.99-.99v-.02a.99.99 0 00-.99-.99z"></path>
  </symbol>
  <symbol xmlns="http://www.w3.org/2000/svg" viewBox="0 0 18 18" id="cloud">
    <title>cloud</title>
    <path d="M11 5a4.005 4.005 0 013.991 4.274C14.849 11.398 12.988 13 10.859 13h-5.77c-1.044 0-1.978-.761-2.079-1.8A2.002 2.002 0 015 9c.059 0 .116.005.173.01l.772.066a1 1 0 001.028-.666l.256-.731A4.004 4.004 0 0111 5zm0-2a5.998 5.998 0 00-5.658 4.017A4 4 0 105 15h6a6 6 0 000-12z"></path>
  </symbol>
  <symbol xmlns="http://www.w3.org/2000/svg" viewBox="0 0 18 18" id="cog">
    <title>cog</title>
    <path d="M16.165 7.861L14.84 7.64a5.958 5.958 0 00-.762-1.826l.738-1.033a.991.991 0 00-.105-1.276l-.214-.214a.99.99 0 00-1.276-.105l-1.033.738a5.968 5.968 0 00-1.826-.762l-.221-1.325a1 1 0 00-.986-.836h-.306a.999.999 0 00-.986.836l-.221 1.325a5.968 5.968 0 00-1.826.762l-1.033-.738a.991.991 0 00-1.276.105l-.214.214a.99.99 0 00-.105 1.276l.738 1.033a5.968 5.968 0 00-.762 1.826l-1.325.221a1.002 1.002 0 00-.836.987v.306c0 .489.353.906.835.986l1.325.221c.153.657.413 1.272.762 1.826l-.738 1.033a.991.991 0 00.105 1.276l.214.214a.99.99 0 001.276.105l1.033-.738a5.968 5.968 0 001.826.762l.221 1.325a1 1 0 00.986.836h.306a.999.999 0 00.986-.836l.221-1.325a5.968 5.968 0 001.826-.762l1.033.738a.991.991 0 001.276-.105l.214-.214a.99.99 0 00.105-1.276l-.738-1.033a5.968 5.968 0 00.762-1.826l1.325-.221a1 1 0 00.835-.986v-.306a1 1 0 00-.835-.987zM9 12a3 3 0 110-6 3 3 0 010 6z"></path>
  </symbol>
  <symbol xmlns="http://www.w3.org/2000/svg" viewBox="0 0 18 18" id="cross">
    <title>cross</title>
    <path d="M9 1a8 8 0 100 16A8 8 0 009 1zm0 14c-3.309 0-6-2.691-6-6s2.691-6 6-6 6 2.691 6 6-2.691 6-6 6z"></path>
    <path d="M11.722 6.292l-.014-.014a.95.95 0 00-1.344 0L9 7.642 7.636 6.278a.95.95 0 00-1.344 0l-.014.014a.95.95 0 000 1.344L7.642 9l-1.364 1.364a.95.95 0 000 1.344l.014.014a.95.95 0 001.344 0L9 10.358l1.364 1.364a.95.95 0 001.344 0l.014-.014a.95.95 0 000-1.344L10.358 9l1.364-1.364a.95.95 0 000-1.344z"></path>
  </symbol>
  <symbol xmlns="http://www.w3.org/2000/svg" viewBox="0 0 18 18" id="dashboard">
    <title>dashboard</title>
    <path d="M9 1a9 9 0 00-9 9 1 1 0 002 0c0-3.86 3.14-7 7-7s7 3.14 7 7a1 1 0 002 0 9 9 0 00-9-9z"></path>
    <path d="M10 9.126V6a1 1 0 00-2 0v3.126A4.002 4.002 0 009 17a4 4 0 001-7.874zM9 15c-1.103 0-2-.897-2-2s.897-2 2-2 2 .897 2 2-.897 2-2 2z"></path>
  </symbol>
  <symbol xmlns="http://www.w3.org/2000/svg" viewBox="0 0 18 18" id="download">
    <title>download</title>
    <path d="M16.991 7.5c-.016-.376-.05-.761-.09-1.154-.279-2.725-2.453-4.96-5.166-5.298A5.959 5.959 0 005.348 5a3.812 3.812 0 00-.34-.017c-2.195 0-4.01 1.791-4.01 3.99v.996c0 .545.475.988 1.018.988h.02c.543 0 .958-.467.958-1.011V9.16c-.115-1.187.852-2.186 2.014-2.186.058 0 .115.005.172.01l.77-.01c.452.038.869-.159 1.019-.587l.216-.617c.524-1.499 1.847-2.623 3.426-2.763 2.445-.217 4.557 1.844 4.394 4.283l-.003.209v2.562h.01c.029.521.486.937 1.013.937h.02c.519 0 .915-.426.951-.937h.007V7.499h-.011z"></path>
    <path d="M11.282 12.306l-1.287 1.317V9.99A.987.987 0 009.01 9h-.02a.987.987 0 00-.985.99v3.481l-.129-.021-1.118-1.114c-.353-.351-.918-.437-1.322-.146a.99.99 0 00-.127 1.511l3.022 3.008a1 1 0 001.41 0l2.952-3a.99.99 0 000-1.403 1 1 0 00-1.41 0z"></path>
  </symbol>
  <symbol xmlns="http://www.w3.org/2000/svg" viewBox="0 0 18 18" id="envelope">
    <title>envelope</title>
    <path d="M16 3H2a1 1 0 00-1 1v10a1 1 0 001 1h14a1 1 0 001-1V4a1 1 0 00-1-1zm-1.382 2L9 8.831 3.382 5h11.236zM15 12.5a.5.5 0 01-.5.5h-11a.5.5 0 01-.5-.5V7.137l5.497 3.723a.976.976 0 001.006 0L15 7.137V12.5z"></path>
  </symbol>
  <symbol xmlns="http://www.w3.org/2000/svg" viewBox="0 0 18 18" id="eye">
    <title>eye</title>
    <path d="M9 2C5.737 2 2.475 4.333 0 9c2.475 4.666 5.737 7 9 7s6.525-2.333 9-7c-2.475-4.666-5.737-7-9-7zm0 12c-2.373 0-4.779-1.808-6.703-5C4.221 5.808 6.628 4 9 4s4.779 1.808 6.703 5c-1.924 3.192-4.331 5-6.703 5z"></path>
    <path d="M11 9a2 2 0 11-4 0 2 2 0 014 0z"></path>
  </symbol>
  <symbol xmlns="http://www.w3.org/2000/svg" viewBox="0 0 18 18" id="fast-forward">
    <title>fast-forward</title>
    <path d="M17.569 8.246L7 2a1 1 0 00-1 1v1.954L1 2a1 1 0 00-1 1v12a1 1 0 001 1l5-2.955V15a1 1 0 001 1l10.569-6.246a.876.876 0 000-1.508zM6 10.722l-4 2.364V4.914l4 2.364v3.444zm2 2.364V4.914L14.915 9 8 13.086z"></path>
  </symbol>
  <symbol xmlns="http://www.w3.org/2000/svg" viewBox="0 0 18 18" id="film">
    <title>film</title>
    <path d="M17 2H1a1 1 0 00-1 1v12a1 1 0 001 1h16a1 1 0 001-1V3a1 1 0 00-1-1zM2 4h2v2H2V4zm0 4h2v2H2V8zm0 6v-2h2v2H2zm4 0V4h6v10H6zm10 0h-2v-2h2v2zm0-4h-2V8h2v2zm0-4h-2V4h2v2z"></path>
  </symbol>
  <symbol xmlns="http://www.w3.org/2000/svg" viewBox="0 0 18 18" id="flag">
    <title>flag</title>
    <path d="M2 1a1 1 0 00-1 1v14a1 1 0 002 0V2a1 1 0 00-1-1zm14 0H6a1 1 0 00-1 1v8a1 1 0 001 1h10a1 1 0 001-1V2a1 1 0 00-1-1zm-1 7.5a.5.5 0 01-.5.5h-7a.5.5 0 01-.5-.5v-5a.5.5 0 01.5-.5h7a.5.5 0 01.5.5v5z"></path>
  </symbol>
  <symbol xmlns="http://www.w3.org/2000/svg" viewBox="0 0 18 18" id="folder">
    <title>folder</title>
    <path d="M5.964 4l1.268 1.268C7.704 5.74 8.332 6 9 6h6v8H3V4h2.964zm.622-2H2a1 1 0 00-1 1v12a1 1 0 001 1h14a1 1 0 001-1V5a1 1 0 00-1-1H9a.5.5 0 01-.353-.146L6.94 2.147a.5.5 0 00-.354-.146z"></path>
  </symbol>
  <symbol xmlns="http://www.w3.org/2000/svg" viewBox="0 0 18 18" id="forward">
    <title>forward</title>
    <path d="M16.711 8.29l-6-5.996a1.003 1.003 0 00-1.417 1.417l4.293 4.29H1.997a1 1 0 100 2h11.59l-4.292 4.29a1.002 1.002 0 101.418 1.417l6-5.997a1.001 1.001 0 000-1.42z"></path>
  </symbol>
  <symbol xmlns="http://www.w3.org/2000/svg" viewBox="0 0 18 18" id="heart">
    <title>heart</title>
    <path d="M12.5 4C13.878 4 15 5.346 15 7c0 3.154-3.818 5.713-6 6.8-2.184-1.089-6-3.647-6-6.8 0-1.654 1.122-3 2.5-3 .643 0 1.347.44 1.883 1.177l.809.886a1 1 0 001.617 0l.809-.886C11.154 4.44 11.858 4 12.501 4zm0-2c-1.415 0-2.675.866-3.5 2-.825-1.134-2.085-2-3.5-2C3.015 2 1 4.239 1 7c0 5.719 8 9 8 9s8-3.281 8-9c0-2.761-2.015-5-4.5-5z"></path>
  </symbol>
  <symbol xmlns="http://www.w3.org/2000/svg" viewBox="0 0 18 18" id="home">
    <title>home</title>
    <path d="M17.577 6.701L9.76 1.183A.999.999 0 009.183 1h-.365c-.207 0-.408.064-.577.183L.424 6.701a.998.998 0 00-.423.817V16a1 1 0 001 1h16a1 1 0 001-1V7.518a1 1 0 00-.423-.817zM16 14.5a.5.5 0 01-.5.5H8V9.5a.5.5 0 00-.5-.5h-3a.5.5 0 00-.5.5V15H2.5a.5.5 0 01-.5-.5V8.295c0-.163.079-.315.211-.409L9 3.095l6.788 4.791a.5.5 0 01.212.409V14.5z"></path>
    <path d="M13.5 9h-3a.5.5 0 00-.5.5v1a.5.5 0 00.5.5h3a.5.5 0 00.5-.5v-1a.5.5 0 00-.5-.5z"></path>
  </symbol>
  <symbol xmlns="http://www.w3.org/2000/svg" viewBox="0 0 18 18" id="image">
    <title>image</title>
    <path d="M17 1H1a1 1 0 00-1 1v14a1 1 0 001 1h16a1 1 0 001-1V2a1 1 0 00-1-1zm-1 13.5a.5.5 0 01-.5.5H7.402l5.602-5.602L16 12.394V14.5zm0-4.894l-2.17-2.17a.989.989 0 00-.832-.435.983.983 0 00-.817.418l-7.582 7.582H2.501a.5.5 0 01-.5-.5v-11a.5.5 0 01.5-.5H15.5a.5.5 0 01.5.5v6.106z"></path>
    <path d="M6 5a2 2 0 10-.001 3.999A2 2 0 006 5z"></path>
  </symbol>
  <symbol xmlns="http://www.w3.org/2000/svg" viewBox="0 0 18 18" id="left">
    <title>left</title>
    <path d="M9 1a8 8 0 100 16A8 8 0 009 1zm0 14c-3.309 0-6-2.691-6-6s2.691-6 6-6 6 2.691 6 6-2.691 6-6 6z"></path>
    <path d="M12.01 8.002H8.377l1.317-1.293c.388-.392.388-1.025 0-1.417s-1.016-.391-1.403 0l-3 2.967a1.007 1.007 0 00-.29.743c.001.011-.001.023-.001.034 0 .266.105.521.291.709l3 2.967c.388.391 1.016.391 1.403 0s.388-1.025 0-1.417l-1.317-1.294h3.633a.99.99 0 00.99-.99v-.018a.99.99 0 00-.99-.99z"></path>
  </symbol>
  <symbol xmlns="http://www.w3.org/2000/svg" viewBox="0 0 18 18" id="location">
    <title>location</title>
    <path d="M8 6.829V12a1 1 0 002 0V6.829A3.001 3.001 0 009 1a3 3 0 00-1 5.829zM16 7h-2a1 1 0 000 2h.5a.5.5 0 01.5.5v5a.5.5 0 01-.5.5h-11a.5.5 0 01-.5-.5v-5a.5.5 0 01.5-.5H4a1 1 0 000-2H2a1 1 0 00-1 1v8a1 1 0 001 1h14a1 1 0 001-1V8a1 1 0 00-1-1z"></path>
  </symbol>
  <symbol xmlns="http://www.w3.org/2000/svg" viewBox="0 0 18 18" id="map-marker">
    <title>map-marker</title>
    <path d="M9 1c-3.866.005-7 3.12-7 6.963 0 5.525 5.02 8.307 6.509 8.953.129.056.267.084.404.084.029 0 .058-.006.087-.009.029.002.058.009.087.009.137 0 .275-.028.404-.084C10.98 16.271 16 13.488 16 7.963 16 4.12 12.867 1.005 9 1zm.088 13.895A2.383 2.383 0 009 14.85a7.844 7.844 0 01-.088.045C7.629 14.247 4 12.052 4 7.963 4 5.229 6.242 3.005 9 3c2.758.005 5 2.229 5 4.963 0 4.089-3.629 6.284-4.912 6.932z"></path>
    <path d="M9 6a2 2 0 100 4 2 2 0 000-4z"></path>
  </symbol>
  <symbol xmlns="http://www.w3.org/2000/svg" viewBox="0 0 18 18" id="microphone">
    <title>microphone</title>
    <path d="M15 5a1 1 0 00-1 1v1.824c0 2.66-2.003 4.987-4.658 5.165A5.005 5.005 0 014 8V6a1 1 0 00-2 0v1.802c0 3.545 2.563 6.625 6 7.126V16a1 1 0 002 0v-1.071A7.001 7.001 0 0016 8V6a1 1 0 00-1-1z"></path>
    <path d="M9 1a3 3 0 00-3 3v4a3 3 0 106 0V4a3 3 0 00-3-3zm1 7c0 .551-.449 1-1 1s-1-.449-1-1V4a1.001 1.001 0 012 0v4z"></path>
  </symbol>
  <symbol xmlns="http://www.w3.org/2000/svg" viewBox="0 0 18 18" id="monitor">
    <title>monitor</title>
    <path d="M16 1H2a1 1 0 00-1 1v12a1 1 0 001 1h5.5A1.5 1.5 0 006 16.5v.5h6v-.5a1.5 1.5 0 00-1.5-1.5H16a1 1 0 001-1V2a1 1 0 00-1-1zm-1 11.5a.5.5 0 01-.5.5h-11a.5.5 0 01-.5-.5v-9a.5.5 0 01.5-.5h11a.5.5 0 01.5.5v9z"></path>
  </symbol>
  <symbol xmlns="http://www.w3.org/2000/svg" viewBox="0 0 18 18" id="moon">
    <title>moon</title>
    <path d="M7.246 3.255a6.046 6.046 0 00-.198 2.597 5.988 5.988 0 007.672 4.892c-.674 2.215-2.642 3.926-4.973 4.21a5.994 5.994 0 01-5.248-1.977C3.347 11.673 2.83 9.99 3.042 8.238c.284-2.335 1.992-4.307 4.204-4.982zM8.985 1a8.15 8.15 0 00-1.104.075c-3.543.48-6.388 3.364-6.82 6.92C.469 12.862 4.245 17 8.985 17c.33 0 .665-.02 1.003-.062 3.549-.433 6.428-3.283 6.907-6.833.052-.383.076-.761.075-1.134-.002-.583-.482-.972-.996-.972a1.02 1.02 0 00-.614.207 3.96 3.96 0 01-2.383.793c-.188 0-.38-.013-.574-.04-1.732-.242-3.137-1.649-3.378-3.385a3.997 3.997 0 01.751-2.963c.415-.657.025-1.609-.764-1.612h-.028z"></path>
  </symbol>
  <symbol xmlns="http://www.w3.org/2000/svg" viewBox="0 0 18 18" id="next">
    <title>next</title>
    <path d="M17 2a1 1 0 00-1 1v4.318L7 2a1 1 0 00-1 1v1.954L1 2a1 1 0 00-1 1v12a1 1 0 001 1l5-2.955V15a1 1 0 001 1l9-5.318V15a1 1 0 002 0V3a1 1 0 00-1-1zM6 10.722l-4 2.364V4.914l4 2.364v3.444zm2 2.364V4.914L14.915 9 8 13.086z"></path>
  </symbol>
  <symbol xmlns="http://www.w3.org/2000/svg" viewBox="0 0 18 18" id="pin">
    <title>pin</title>
    <path d="M15 2V1H3v1a1 1 0 001 1v8a1 1 0 00-1 1v1h5v3a1 1 0 002 0v-3h5v-1a1 1 0 00-1-1V3a1 1 0 001-1zm-3 9H6V3h6v8z"></path>
  </symbol>
  <symbol xmlns="http://www.w3.org/2000/svg" viewBox="0 0 18 18" id="play">
    <title>play</title>
    <path d="M5 4.914L11.915 9 5 13.086V4.914zM4 2a1 1 0 00-1 1v12a1 1 0 001 1l10.569-6.246a.876.876 0 000-1.508L4 2z"></path>
  </symbol>
  <symbol xmlns="http://www.w3.org/2000/svg" viewBox="0 0 18 18" id="plus">
    <title>plus</title>
    <path d="M9 1a8 8 0 100 16A8 8 0 009 1zm0 14c-3.309 0-6-2.691-6-6s2.691-6 6-6 6 2.691 6 6-2.691 6-6 6z"></path>
    <path d="M12.01 8H10V5.99A.99.99 0 009.01 5h-.02a.99.99 0 00-.99.99V8H5.99a.99.99 0 00-.99.99v.02c0 .547.443.99.99.99H8v2.01c0 .547.443.99.99.99h.02a.99.99 0 00.99-.99V10h2.01a.99.99 0 00.99-.99v-.02a.99.99 0 00-.99-.99z"></path>
  </symbol>
  <symbol xmlns="http://www.w3.org/2000/svg" viewBox="0 0 18 18" id="printer">
    <title>printer</title>
    <path d="M17 3h-4V2a1 1 0 00-1-1H6a1 1 0 00-1 1v1H1a1 1 0 00-1 1v8a1 1 0 001 1h2v3a1 1 0 001 1h10a1 1 0 001-1v-3h2a1 1 0 001-1V4a1 1 0 00-1-1zm-4 12H5v-4h8v4zm3-4.5a.5.5 0 01-.5.5H15v-1a1 1 0 00-1-1H4a1 1 0 00-1 1v1h-.5a.5.5 0 01-.5-.5v-5a.5.5 0 01.5-.5h13a.5.5 0 01.5.5v5z"></path>
  </symbol>
  <symbol xmlns="http://www.w3.org/2000/svg" viewBox="0 0 18 18" id="rain">
    <title>rain</title>
    <path d="M16.991 6.5c-.016-.376-.05-.761-.09-1.154-.279-2.725-2.452-4.96-5.165-5.298A5.96 5.96 0 005.349 4a3.812 3.812 0 00-.34-.017C2.814 3.983 1 5.774 1 7.973v.996c0 .544.475.988 1.018.988h.02c.543 0 .958-.467.958-1.011v-.785c-.115-1.187.852-2.186 2.013-2.186.058 0 .115.005.172.01l.77-.01c.452.038.869-.159 1.019-.587l.216-.617c.524-1.498 1.847-2.623 3.426-2.763 2.445-.217 4.557 1.844 4.393 4.283l-.003.21v2.562h.01c.029.521.486.938 1.013.938h.02c.519 0 .915-.426.951-.938h.007V6.501h-.011z"></path>
    <path d="M7.001 8a1 1 0 00-1 1v2a1 1 0 002 0V9a1 1 0 00-1-1zm0 6a1 1 0 00-1 1v2a1 1 0 002 0v-2a1 1 0 00-1-1zm4-8a1 1 0 00-1 1v2a1 1 0 102 0V7a1 1 0 00-1-1zm0 6a1 1 0 00-1 1v2a1 1 0 002 0v-2a1 1 0 00-1-1z"></path>
  </symbol>
  <symbol xmlns="http://www.w3.org/2000/svg" viewBox="0 0 18 18" id="refresh">
    <title>refresh</title>
    <path d="M8.013 14.006h-.822a5.006 5.006 0 01-4.187-4.934c0-.831.213-1.609.574-2.299l.613.85a.91.91 0 001.614-.289l1.162-4.179a.91.91 0 00-.877-1.154l-4.174.006A.91.91 0 001.18 3.45l1.128 1.564a6.963 6.963 0 00-1.302 4.059 7 7 0 005.918 6.917c.091.014.18.01.267-.001v.012h.822A.987.987 0 009 15.014v-.02a.987.987 0 00-.987-.987zm8.807.545l-1.129-1.564a6.956 6.956 0 001.302-4.059 7.001 7.001 0 00-5.918-6.918.955.955 0 00-.267.001v-.013h-.822A.986.986 0 009 2.985v.02c0 .546.442.988.986.988h.822a5.006 5.006 0 014.187 4.934c0 .831-.213 1.609-.573 2.299l-.614-.85a.909.909 0 00-1.613.289l-1.163 4.179a.91.91 0 00.878 1.154l4.174-.006a.91.91 0 00.736-1.443z"></path>
  </symbol>
  <symbol xmlns="http://www.w3.org/2000/svg" viewBox="0 0 18 18" id="reply">
    <title>reply</title>
    <path d="M10.996 7.001l-3.979.002-.019-.002H5.394l3.317-3.319a.977.977 0 000-1.382l-.014-.014a.977.977 0 00-1.381 0L2.401 7.204c-.035.026-.07.051-.101.083l-.005.005-.003.004-.005.005a.823.823 0 00-.088.109c-.009.011-.02.021-.027.033a.972.972 0 00-.17.554v.009a.972.972 0 00.17.554c.008.012.018.021.026.033.028.037.056.075.089.109l.005.005.003.003.005.005c.031.032.066.057.101.083l4.915 4.918a.977.977 0 001.381 0l.014-.014a.977.977 0 000-1.382L5.394 9.001h1.604l.019-.002v.002h3.979a3.003 3.003 0 012.999 3.001V15a1 1 0 102 0v-2.998a4.999 4.999 0 00-4.998-5.001z"></path>
  </symbol>
  <symbol xmlns="http://www.w3.org/2000/svg" viewBox="0 0 18 18" id="reply-all">
    <title>reply-all</title>
    <path d="M2.393 8.001l4.318-4.32a.978.978 0 000-1.382l-.014-.014a.975.975 0 00-1.381 0L.399 7.203c-.034.026-.069.051-.101.083L.284 7.3A.97.97 0 000 8a.974.974 0 00.284.7l.014.014c.032.031.067.056.101.083l4.917 4.918a.975.975 0 001.381 0l.014-.014a.978.978 0 000-1.382L2.393 8z"></path>
    <path d="M12.996 7.001H8.392l3.318-3.319a.978.978 0 000-1.382l-.014-.014a.975.975 0 00-1.381 0L5.398 7.204c-.034.026-.069.051-.101.083l-.005.005-.003.004-.006.005a1 1 0 00-.088.109c-.008.011-.019.021-.027.033a.97.97 0 00-.17.554l-.001.004.001.004a.972.972 0 00.17.554c.008.011.018.021.026.033.028.037.055.075.089.109l.006.005.003.003.006.005c.031.031.066.056.101.083l4.917 4.918a.975.975 0 001.381 0l.014-.014a.978.978 0 000-1.382L8.393 9h4.604c1.654 0 3 1.346 3 3.001v2.998a1 1 0 102 0v-2.998A5 5 0 0012.998 7z"></path>
  </symbol>
  <symbol xmlns="http://www.w3.org/2000/svg" viewBox="0 0 18 18" id="search">
    <title>search</title>
    <path d="M7.012 3c2.193 0 3.977 1.794 3.977 4 0 .831-.255 1.63-.737 2.312l-.392.553-.55.393A3.931 3.931 0 017.012 11c-2.193 0-3.977-1.794-3.977-4s1.784-4 3.977-4zm0-2C3.717 1 1.046 3.686 1.046 7s2.671 6 5.966 6a5.902 5.902 0 003.451-1.112l4.791 4.819a.99.99 0 001.409 0 1.005 1.005 0 000-1.416l-4.791-4.819a5.986 5.986 0 001.105-3.471c0-3.314-2.671-6-5.965-6z"></path>
  </symbol>
  <symbol xmlns="http://www.w3.org/2000/svg" viewBox="0 0 18 18" id="sound">
    <title>sound</title>
    <path d="M10.214 2a.62.62 0 00-.334.101l-4.048 2.81A.494.494 0 015.549 5H1.996A.998.998 0 001 6v6c0 .552.446 1 .996 1h3.553c.102 0 .2.031.283.089l4.048 2.81a.62.62 0 00.334.101c.392 0 .747-.4.747-.949V2.95c0-.55-.355-.949-.747-.949zM8.969 12.834l-2.387-1.657a.996.996 0 00-.566-.178H3.491a.5.5 0 01-.498-.5v-3a.5.5 0 01.498-.5h2.525c.202 0 .4-.062.566-.178l2.387-1.657v7.669zm7.965-4.035c-.086-1.748-1.514-2.991-2.507-3.649-.47-.312-1.094-.122-1.325.408l-.038.086a.973.973 0 00.336 1.194c.706.473 1.586 1.247 1.624 2.065.032.676-.553 1.468-1.663 2.27a.987.987 0 00-.285 1.275l.042.075c.266.475.866.624 1.3.312 1.74-1.251 2.586-2.606 2.516-4.037z"></path>
  </symbol>
  <symbol xmlns="http://www.w3.org/2000/svg" viewBox="0 0 18 18" id="store">
    <title>store</title>
    <path d="M14.009 11h-.02a.99.99 0 00-.99.99v2.51a.5.5 0 01-.5.5H5.5a.5.5 0 01-.5-.5v-2.51a.99.99 0 00-.99-.99h-.02a.99.99 0 00-.99.99v4.02c0 .547.443.99.99.99h10.018a.99.99 0 00.99-.99v-4.02a.99.99 0 00-.99-.99zm2.054-7.498l-1.566-1.566a3.163 3.163 0 00-2.498-.917v-.018H6v.018a3.168 3.168 0 00-2.498.917L1.936 3.502a3.195 3.195 0 000 4.517l.046.045C2.606 8.688 3.422 9 4.24 9s1.635-.312 2.258-.936l.166-.165A2.962 2.962 0 008.97 9h.06c.932 0 1.762-.43 2.306-1.101l.166.165c.624.624 1.441.936 2.258.936s1.634-.312 2.258-.936l.045-.045a3.193 3.193 0 000-4.517zm-1.414 3.103l-.046.046c-.226.226-.525.35-.844.35s-.619-.124-.845-.35l-.165-.166-1.413-1.414a.198.198 0 00-.294.015l-1.26 1.553A.967.967 0 019.029 7h-.06a.964.964 0 01-.753-.361L6.98 5.116a.232.232 0 00-.344-.018L5.084 6.651c-.226.226-.525.35-.844.35s-.619-.124-.844-.35l-.046-.046a1.194 1.194 0 010-1.688l1.566-1.566c.297-.297.65-.341.834-.341.032 0 .217-.011.249-.008h5.999c.032-.002.217.008.249.008.185 0 .538.044.835.341l1.566 1.566a1.195 1.195 0 010 1.689z"></path>
  </symbol>
  <symbol xmlns="http://www.w3.org/2000/svg" viewBox="0 0 18 18" id="sun">
    <title>sun</title>
    <path d="M9.587 6.056a3.003 3.003 0 00-3.534 3.531A3.006 3.006 0 008.999 12a3.003 3.003 0 002.947-3.587 3.006 3.006 0 00-2.359-2.357zm.184 3.581a1 1 0 01-.772.363c-.07 0-.143-.007-.215-.021a.998.998 0 01-.557-1.616A1 1 0 018.999 8c.07 0 .142.007.215.021a.998.998 0 01.557 1.616zm7.24.363h-2.009a.996.996 0 01-.997-.996v-.007c0-.55.446-.996.997-.996h2.009c.551 0 .997.446.997.996v.007c0 .55-.446.996-.997.996zm-8.007 4h-.007a.996.996 0 00-.997.996v2.007c0 .55.446.996.997.996h.007a.996.996 0 00.997-.996v-2.007A.996.996 0 009.004 14zM8.996 4h.007A.996.996 0 0010 3.004V.997a.996.996 0 00-.997-.996h-.007a.996.996 0 00-.997.996v2.007c0 .55.446.996.997.996zm-5 5.004v-.007a.997.997 0 00-.998-.996H.989a.997.997 0 00-.998.996v.007c0 .55.447.996.998.996h2.009a.997.997 0 00.998-.996zm10.617-4.28l1.118-1.117a.942.942 0 10-1.333-1.332L13.28 3.392a.942.942 0 101.333 1.332zM3.603 2.276A.943.943 0 002.27 3.608l1.118 1.117a.943.943 0 001.333-1.332L3.603 2.276zm-.215 11L2.27 14.393a.942.942 0 101.333 1.332l1.118-1.117a.942.942 0 10-1.333-1.332zm11.225 0a.943.943 0 00-1.333 1.332l1.118 1.117a.943.943 0 001.333-1.332l-1.118-1.117z"></path>
  </symbol>
  <symbol xmlns="http://www.w3.org/2000/svg" viewBox="0 0 18 18" id="support">
    <title>support</title>
    <path d="M9 1a8 8 0 100 16A8 8 0 009 1zm0 2c1.294 0 2.49.416 3.471 1.115l-1.442 1.442a3.973 3.973 0 00-4.058 0L5.529 4.115A5.959 5.959 0 019 3zm2 6c0 .106-.013.208-.031.309a1.99 1.99 0 01-1.66 1.66C9.208 10.987 9.106 11 9 11s-.208-.013-.309-.031a1.99 1.99 0 01-1.66-1.66C7.012 9.208 7 9.106 7 9s.013-.208.031-.309a1.99 1.99 0 011.66-1.66C8.792 7.013 8.894 7 9 7s.208.013.309.031a1.99 1.99 0 011.66 1.66c.019.101.031.203.031.309zM3 9c0-1.294.416-2.49 1.115-3.471l1.442 1.442a3.97 3.97 0 000 4.058l-1.442 1.442A5.961 5.961 0 013 9zm6 6a5.961 5.961 0 01-3.471-1.115l1.442-1.442a3.973 3.973 0 004.058 0l1.442 1.442A5.959 5.959 0 019 15zm4.885-2.529l-1.442-1.442a3.97 3.97 0 000-4.058l1.442-1.442a5.961 5.961 0 010 6.942z"></path>
  </symbol>
  <symbol xmlns="http://www.w3.org/2000/svg" viewBox="0 0 20 18" id="switch">
    <title>switch</title>
    <path d="M13 2H7a7 7 0 100 14h6a7 7 0 100-14zm0 12H7c-2.757 0-5-2.243-5-5s2.243-5 5-5h6c2.757 0 5 2.243 5 5s-2.243 5-5 5z"></path>
    <path d="M10 9a3 3 0 11-6 0 3 3 0 016 0z"></path>
  </symbol>
  <symbol xmlns="http://www.w3.org/2000/svg" viewBox="0 0 18 18" id="tag">
    <title>tag</title>
    <path d="M16.693 8.51l-7.18-7.208A1.026 1.026 0 008.787 1H2.034c-.566 0-1.026.459-1.026 1.027v6.752c0 .272.108.534.301.726L8.504 16.7a1.023 1.023 0 001.45 0l6.738-6.739c.4-.4.401-1.05.001-1.451zm-2.454 1.077l-4.658 4.658a.5.5 0 01-.706 0L3.006 8.376V3.501a.5.5 0 01.499-.5h4.877l5.856 5.88a.501.501 0 010 .707z"></path>
    <path d="M8.002 6.5a1.5 1.5 0 11-3 0 1.5 1.5 0 013 0z"></path>
  </symbol>
  <symbol xmlns="http://www.w3.org/2000/svg" viewBox="0 0 18 18" id="target">
    <title>target</title>
    <path d="M16 8h-1.083A6.006 6.006 0 0010 3.083V2a1 1 0 00-2 0v1.083A6.006 6.006 0 003.083 8H2a1 1 0 000 2h1.083A6.006 6.006 0 008 14.917V16a1 1 0 002 0v-1.083A6.006 6.006 0 0014.917 10H16a1 1 0 000-2zm-6 4.873V12a1 1 0 00-2 0v.873A4.014 4.014 0 015.127 10H6a1 1 0 000-2h-.873A4.014 4.014 0 018 5.127V6a1 1 0 002 0v-.873A4.014 4.014 0 0112.873 8H12a1 1 0 000 2h.873A4.014 4.014 0 0110 12.873z"></path>
  </symbol>
  <symbol xmlns="http://www.w3.org/2000/svg" viewBox="0 0 18 18" id="trash">
    <title>trash</title>
    <path d="M17 5h-4V2a1 1 0 00-1-1H6a1 1 0 00-1 1v3H1a1 1 0 00-1 1v1h2v9a1 1 0 001 1h12a1 1 0 001-1V7h2V6a1 1 0 00-1-1zM7 3h4v2H7V3zm7 12H4V7h10v8z"></path>
    <path d="M6.5 13h1a.5.5 0 00.5-.5v-3a.5.5 0 00-.5-.5h-1a.5.5 0 00-.5.5v3a.5.5 0 00.5.5zm4 0h1a.5.5 0 00.5-.5v-3a.5.5 0 00-.5-.5h-1a.5.5 0 00-.5.5v3a.5.5 0 00.5.5z"></path>
  </symbol>
  <symbol xmlns="http://www.w3.org/2000/svg" viewBox="0 0 18 18" id="trophy">
    <title>trophy</title>
    <path d="M17 3h-3V2a1 1 0 00-1-1H5a1 1 0 00-1 1v1H1a1 1 0 00-1 1v2c0 1.607 1.065 4 4 4h.419A5.011 5.011 0 008 12.9V15H7a2 2 0 00-2 2h8a2 2 0 00-2-2h-1v-2.1a5.01 5.01 0 003.581-2.9H14c2.935 0 4-2.393 4-4V4a1 1 0 00-1-1zM4 8C2.174 8 2.008 6.464 2 6V5h2v3zm8 .624l-.251.575A3 3 0 019 11a3.002 3.002 0 01-2.749-1.801L6 8.624V3h6v5.624zM16 6c0 .334-.097 2-2 2V5h2v1z"></path>
    <path d="M14.022 10.022c.015 0 .017-.005-.022-.022v.02a.222.222 0 00.022.002zm-10.044 0L4 10.02V10c-.04.017-.038.022-.022.022z"></path>
  </symbol>
  <symbol xmlns="http://www.w3.org/2000/svg" viewBox="0 0 18 18" id="up">
    <title>up</title>
    <path d="M17 9A8 8 0 101 9a8 8 0 0016 0zM3 9c0-3.309 2.691-6 6-6s6 2.691 6 6-2.691 6-6 6-6-2.691-6-6z"></path>
    <path d="M9.998 12.01V8.377l1.293 1.317c.392.388 1.025.388 1.417 0s.391-1.016 0-1.403l-2.967-3A1.007 1.007 0 009.032 5l-.034.001C8.987 5.002 8.975 5 8.964 5c-.266 0-.521.105-.709.291l-2.967 3c-.391.388-.391 1.016 0 1.403s1.025.388 1.417 0l1.294-1.317v3.633c0 .547.443.99.99.99h.018a.99.99 0 00.99-.99z"></path>
  </symbol>
  <symbol xmlns="http://www.w3.org/2000/svg" viewBox="0 0 18 18" id="upload">
    <title>upload</title>
    <path d="M16.991 7.5c-.016-.376-.05-.761-.09-1.154-.279-2.725-2.453-4.96-5.166-5.298A5.96 5.96 0 005.347 5a3.812 3.812 0 00-.34-.017c-2.195 0-4.01 1.791-4.01 3.99v.996c0 .545.475.988 1.018.988h.02c.543 0 .958-.467.958-1.011V9.16c-.115-1.187.852-2.186 2.014-2.186.058 0 .115.005.172.01l.77-.01c.452.039.869-.159 1.019-.587l.216-.617c.524-1.499 1.847-2.623 3.426-2.763 2.445-.217 4.557 1.844 4.394 4.283l-.003.21v2.563h.01c.029.521.486.937 1.013.937h.02c.519 0 .915-.426.951-.937h.007V7.5h-.011z"></path>
    <path d="M12.691 12.299L9.669 9.291a1 1 0 00-1.41 0l-2.952 3c-.389.387-.389 1.015 0 1.403s1.02.388 1.409 0l1.287-1.317v3.633c0 .547.441.99.985.99h.02a.987.987 0 00.985-.99v-3.481l.129.021 1.118 1.114c.353.351.918.437 1.322.146a.99.99 0 00.127-1.511z"></path>
  </symbol>
  <symbol xmlns="http://www.w3.org/2000/svg" viewBox="0 0 18 18" id="user">
    <title>user</title>
    <path d="M13.714 7.654h-.001A4.98 4.98 0 0013.999 6a5 5 0 10-10 0c0 .581.104 1.135.286 1.654a5.994 5.994 0 00-3.286 5.345v3A1 1 0 002 17h13.997a1 1 0 001.001-1.001v-3a5.991 5.991 0 00-3.286-5.345zM9 3c1.654 0 3 1.346 3 3s-1.346 3-3 3-3-1.346-3-3 1.346-3 3-3zm6 12H3v-2.001c0-1.604.952-2.987 2.318-3.624C6.232 10.372 7.541 11 9 11s2.768-.628 3.682-1.625A4.002 4.002 0 0115 12.999V15z"></path>
  </symbol>
  <symbol xmlns="http://www.w3.org/2000/svg" viewBox="0 0 18 18" id="users">
    <title>users</title>
    <path d="M14.6 7h-.14c.341-.589.54-1.27.54-2a4 4 0 00-8 0 4 4 0 00-4 4c0 .729.198 1.411.54 2H3.4c-1.425.638-2.4 2.005-2.4 3.463V16c0 .351.554 1 .969 1h10.156c.415 0 .875-.649.875-1v-1.537c0-.509-.125-1.004-.34-1.463h3.465c.415 0 .875-.649.875-1v-1.537c0-1.458-.975-2.825-2.4-3.463zM11 3c1.103 0 2 .897 2 2s-.897 2-2 2a1.97 1.97 0 01-.602-.103 4.009 4.009 0 00-1.296-1.295A1.97 1.97 0 018.999 5c0-1.103.897-2 2-2zM7 7a2 2 0 010 4 1.997 1.997 0 01-1.966-1.661A1.796 1.796 0 015 9a2 2 0 012-2zm4 8H3v-.537c0-.543.356-1.107.898-1.463h6.203c.542.356.898.92.898 1.463V15zm4-4h-4.54c.341-.589.54-1.27.54-2h3.102c.542.356.898.92.898 1.463V11z"></path>
  </symbol>
  <symbol xmlns="http://www.w3.org/2000/svg" viewBox="0 0 18 18" id="video-camera">
    <title>video-camera</title>
    <path d="M17.001 4a.907.907 0 00-.352.071L12 5.984V4.001a1 1 0 00-1-1H1a1 1 0 00-1 1v10a1 1 0 001 1h10a1 1 0 001-1v-1.983l4.649 1.913a.926.926 0 00.352.071c.53 0 .999-.47.999-1.098V5.1c0-.628-.469-1.098-.999-1.098zM10 12.5a.5.5 0 01-.5.5h-7a.5.5 0 01-.5-.5v-7a.5.5 0 01.5-.5h7a.5.5 0 01.5.5v7zm6-1l-4-1.646V8.146L16 6.5v4.999z"></path>
  </symbol>
  <symbol xmlns="http://www.w3.org/2000/svg" viewBox="0 0 18 18" id="windows">
    <title>windows</title>
    <path d="M17 1H7a1 1 0 00-1 1v3H1a1 1 0 00-1 1v10a1 1 0 001 1h10a1 1 0 001-1v-3h5a1 1 0 001-1V2a1 1 0 00-1-1zm-7 13.5a.5.5 0 01-.5.5h-7a.5.5 0 01-.5-.5v-7a.5.5 0 01.5-.5h7a.5.5 0 01.5.5v7zm6-4a.5.5 0 01-.5.5H12V6a1 1 0 00-1-1H8V3.5a.5.5 0 01.5-.5h7a.5.5 0 01.5.5v7z"></path>
  </symbol>
  <symbol xmlns="http://www.w3.org/2000/svg" viewBox="0 0 18 18" id="write">
    <title>write</title>
    <path d="M16.001 11a1 1 0 00-1 1v2.5a.5.5 0 01-.5.5H3.499a.5.5 0 01-.5-.5v-11a.5.5 0 01.5-.5h2.5a1 1 0 100-2h-4a1 1 0 00-1 1v14a1 1 0 001 1h14.002a1 1 0 001-1v-4a1 1 0 00-1-1z"></path>
    <path d="M13.169 3.403l1.429 1.429L8.65 11H7V9.35l6.169-5.947zM13.182 1a.994.994 0 00-.706.292L5 8.5V13h4.501l7.209-7.475a.997.997 0 000-1.411l-2.822-2.822A.992.992 0 0013.183 1z"></path>
  </symbol>
</svg>