<svg width="0" height="0" class="hidden">
  <symbol xmlns="http://www.w3.org/2000/svg" viewBox="0 0 1000 1187.198" id="Apple_logo_black">
    <path d="M979.042 925.188c-17.954 41.477-39.206 79.657-63.828 114.759-33.563 47.853-61.044 80.976-82.222 99.37-32.83 30.192-68.006 45.654-105.672 46.533-27.041 0-59.652-7.694-97.611-23.303-38.085-15.536-73.084-23.23-105.086-23.23-33.563 0-69.56 7.694-108.061 23.23-38.561 15.609-69.625 23.743-93.376 24.55-36.12 1.538-72.123-14.364-108.06-47.78-22.938-20.006-51.627-54.302-85.997-102.888-36.875-51.883-67.191-112.047-90.942-180.639C12.751 781.703 0 709.96 0 640.504c0-79.562 17.192-148.183 51.627-205.687 27.063-46.19 63.066-82.625 108.127-109.373 45.06-26.748 93.749-40.378 146.182-41.25 28.69 0 66.312 8.874 113.066 26.315 46.622 17.5 76.557 26.374 89.682 26.374 9.812 0 43.068-10.376 99.443-31.064 53.313-19.185 98.307-27.129 135.168-24 99.883 8.062 174.923 47.436 224.828 118.372-89.33 54.126-133.52 129.936-132.64 227.188.806 75.751 28.287 138.788 82.295 188.84 24.476 23.23 51.81 41.183 82.222 53.934-6.595 19.127-13.557 37.447-20.958 55.035zM749.964 23.75c0 59.374-21.692 114.81-64.928 166.122-52.176 61-115.286 96.248-183.724 90.686a184.836 184.836 0 01-1.378-22.497c0-56.999 24.813-117.998 68.878-167.874 21.999-25.253 49.978-46.25 83.907-63 33.856-16.5 65.88-25.625 95.999-27.187.88 7.937 1.246 15.875 1.246 23.75z"></path>
  </symbol>
  <symbol xmlns="http://www.w3.org/2000/svg" viewBox="0 0 537.1 106.6" id="ASUS_Logo">
    <path d="M514.3 13.5c0-6.1 4.9-11.1 10.9-11.1 2.9 0 5.6 1.2 7.7 3.2 2.1 2.1 3.2 4.9 3.2 7.8s-1.1 5.7-3.2 7.8c-2.1 2.1-4.8 3.3-7.7 3.3-6 0-10.9-4.9-10.9-11m-.9 0c0 6.6 5.3 12 11.9 12 3.2 0 6.1-1.2 8.3-3.5s3.5-5.3 3.5-8.5-1.2-6.2-3.5-8.5-5.2-3.5-8.3-3.5c-6.6 0-11.9 5.4-11.9 12m7.4 7.1h1.7V15h3.8c.6 0 1.1 0 1.5.2.5.3.8.9.9 1.7l.2 2.2v1c.1.2.1.3.2.4h2.1v-.3c-.3-.1-.4-.4-.5-.8-.1-.2-.1-.6-.1-1.1l-.1-1.7c0-.8-.2-1.3-.4-1.6-.3-.3-.7-.6-1.2-.8.6-.3 1-.7 1.3-1.2s.4-1.1.4-1.9c0-1.5-.6-2.5-1.7-3.1-.6-.3-1.4-.4-2.3-.4h-5.7l-.1 13zm1.6-7.1V9h4c.6 0 1.1.1 1.4.3.6.3.9 1 .9 1.9s-.2 1.5-.7 1.8c-.4.3-1 .5-1.8.5h-3.8zM48.6 30L0 106.4h33.2l46.8-73L48.6 30zm200.1-1.7V0h-94.5c-12.9.8-18.5 7-22.7 11.4-4.5 4.7-7 14.6-7 14.6V.2H74.2c-3.8 0-7.4 1.6-10.1 5.4-2.8 3.7-14.3 22.7-14.3 22.7h198.9zm257 0V0H404.6c-12.8.8-18.5 7-22.7 11.4-4.5 4.7-7 14.6-7 14.6v2.3h130.8zM281.9.1h-28.3v28.2h28.3V.1zm92.7 0h-28.2v28.2h28.2V.1zm0 38.4l-27.8-1.7v32.7s-.1 9.4-9.2 9.4H290s-8.1-.7-8.1-9.3V32.4l-28-2v50.1c4.5 24 26.2 25.9 26.2 25.9s2.2.1 2.6.2h64.5s27.6-2.2 27.6-28.8l-.2-39.3zM95.7 106.4h132.2c23-4.6 25.4-25.6 25.4-25.6 1.1-6.2.5-11.3.5-11.3-.7-4.2-8.7-22.8-25.9-24.4-10.3-1-102-8.3-102-8.3 1.8 9.2 5.9 13.9 8.7 16.5 6.4 6.1 16.5 7.9 16.5 7.9l70.7 5.9c2.2.1 6.3.7 6.2 6.1 0 .7-.6 5.4-5.8 5.4h-98.9v-42l-27.5-2c-.1 0-.1 71.8-.1 71.8zm279.1.2H476c25.4-1.5 29-25.6 29-25.6.9-6.3.2-11.5.2-11.5-.7-5.7-8.8-22.9-26.1-24.6-10.2-1-102.5-6.4-102.5-6.4 2.7 9.5 6.4 12.4 9.2 15 6.4 6.2 15.9 7.6 15.9 7.6 2.4.2 71.4 6 71.4 6 2.2.1 6.7.3 6.7 5.7 0 1.6-.8 3.3-1.8 4.2 0 0-2.4 1.3-4.7 1.3h-98.2l-.3 28.3z" fill="#00539b"></path>
  </symbol>
  <symbol xmlns="http://www.w3.org/2000/svg" viewBox="0 0 32 32" id="facebook">
    <title>facebook</title>
    <path fill="#1877f2" d="M31.997 15.999C31.997 7.163 24.834 0 15.998 0S-.001 7.163-.001 15.999c0 7.985 5.851 14.604 13.499 15.804v-11.18H9.436v-4.625h4.062v-3.525c0-4.01 2.389-6.225 6.043-6.225 1.75 0 3.581.313 3.581.313v3.937h-2.017c-1.987 0-2.607 1.233-2.607 2.498v3.001h4.437l-.709 4.625h-3.728v11.18c7.649-1.2 13.499-7.819 13.499-15.804z"></path>
  </symbol>
  <symbol xmlns="http://www.w3.org/2000/svg" viewBox="0 0 35.625 36.227" id="Huawei_Standard_logo">
    <g stroke-width=".61">
      <path d="M10.938 30.223v3.386c0 .962-.477 1.475-1.344 1.475-.872 0-1.352-.528-1.352-1.516v-3.34h-1.2v3.381c0 1.664.924 2.618 2.536 2.618 1.627 0 2.56-.972 2.56-2.667v-3.337zm4.414 0l-2.606 5.911h1.225l.503-1.144.036-.086h2.706l.531 1.23h1.258l-2.581-5.876-.023-.035zm7.133 0l-1.343 4.068-1.307-4.065h-1.277l2.061 5.912h.994l1.345-3.883 1.344 3.883h1.002l2.056-5.912h-1.244l-1.31 4.065-1.343-4.068zm11.74 0v5.906h1.183v-5.906zm-33.956 0v5.915h1.2v-2.402h2.71v2.402h1.2v-5.914h-1.2v2.386h-2.71v-2.386zm28.058.005v5.906h4.467v-1.077H29.51v-1.465h2.183v-1.077H29.51v-1.21h3.168v-1.077zM15.86 31.72l.856 1.98h-.003l.058.137h-1.815l.057-.137z" fill="#232527"></path>
      <path d="M15.212 0c-.476.042-1.762.334-1.762.334-2.9.75-3.585 3.38-3.585 3.38a5.09 5.09 0 00-.225 1.323v.582a7.15 7.15 0 00.238 1.569c.969 4.294 5.73 11.35 6.753 12.831.073.072.131.046.131.046.11-.03.102-.136.102-.136h.002c1.576-15.754-1.654-19.93-1.654-19.93zm5.208 0s-3.245 4.178-1.667 19.94h.002c.012.1.083.122.083.122.106.04.16-.06.16-.06 1.05-1.52 5.784-8.537 6.748-12.814 0 0 .523-2.07.018-3.474 0 0-.716-2.671-3.62-3.377 0 0-.836-.213-1.724-.338zM5.455 4.729s-2.762 2.622-2.9 5.401h.001v.421l.006.096c.12 2.242 1.805 3.568 1.805 3.568 2.717 2.648 9.295 5.99 10.823 6.749.022.008.1.034.147-.025 0 0 .024-.018.035-.051v-.07c0-.004-.003-.008-.005-.012-4.185-9.145-9.912-16.077-9.912-16.077zm24.715 0s-5.71 6.91-9.893 16.037h.001s-.05.105.03.173c0 0 .025.018.058.026h.058a.11.11 0 00.032-.015v.001c1.57-.78 8.097-4.1 10.801-6.735 0 0 1.712-1.376 1.802-3.583.198-3.066-2.889-5.904-2.889-5.904zm5.139 9.078s-9.308 4.995-14.12 8.242v.001s-.086.057-.056.16c0 0 .046.083.112.083 1.724.003 8.247.01 8.41-.02 0 0 .844-.034 1.886-.434 0 0 2.32-.738 3.526-3.372 0 0 .55-1.101.558-2.649v-.066a6.287 6.287 0 00-.316-1.945zm-34.995.024c-.847 2.621.293 4.734.295 4.737 1.188 2.51 3.456 3.271 3.456 3.271a6.7 6.7 0 002.094.46c.164.03 6.513.003 8.214-.005.072 0 .112-.073.112-.073a.093.093 0 00.011-.023v-.065a.183.183 0 00-.051-.075C9.635 18.812.314 13.831.314 13.831zm13.865 9.27l-10.95.383c1.188 2.117 3.187 3.762 5.27 3.257 1.438-.36 4.695-2.631 5.77-3.399l-.003-.003c.083-.075.053-.135.053-.135-.027-.098-.14-.098-.14-.098zm7.252.007v.004s-.097.013-.124.085c0 0-.023.098.041.147 1.048.753 4.226 2.974 5.757 3.406 0 0 .232.079.62.093h.234c1.026-.036 2.812-.563 4.436-3.353z" fill="#cf0a2c"></path>
    </g>
  </symbol>
  <symbol xmlns="http://www.w3.org/2000/svg" viewBox="0 0 32 32" id="instagram">
    <title>instagram</title>
    <path fill="#e4405f" d="M16 0c-4.347 0-4.889.02-6.596.096C7.7.176 6.54.444 5.52.84c-1.052.408-1.945.956-2.835 1.845S1.246 4.466.84 5.52C.444 6.54.175 7.7.096 9.404.016 11.111 0 11.653 0 16s.02 4.889.096 6.596c.08 1.703.348 2.864.744 3.884a7.854 7.854 0 001.845 2.835A7.807 7.807 0 005.52 31.16c1.021.395 2.181.665 3.884.744 1.707.08 2.249.096 6.596.096s4.889-.02 6.596-.096c1.703-.08 2.864-.349 3.884-.744a7.867 7.867 0 002.835-1.845 7.799 7.799 0 001.845-2.835c.395-1.02.665-2.181.744-3.884.08-1.707.096-2.249.096-6.596s-.02-4.889-.096-6.596c-.08-1.703-.349-2.865-.744-3.884a7.859 7.859 0 00-1.845-2.835A7.786 7.786 0 0026.48.84C25.46.444 24.299.175 22.596.096 20.889.016 20.347 0 16 0zm0 2.88c4.271 0 4.78.021 6.467.095 1.56.073 2.407.332 2.969.553.749.289 1.28.636 1.843 1.195a4.95 4.95 0 011.195 1.841c.219.563.48 1.409.551 2.969.076 1.688.093 2.195.093 6.467s-.02 4.78-.099 6.467c-.081 1.56-.341 2.407-.561 2.969-.299.749-.639 1.28-1.199 1.843a5.002 5.002 0 01-1.84 1.195c-.56.219-1.42.48-2.98.551-1.699.076-2.199.093-6.479.093-4.281 0-4.781-.02-6.479-.099-1.561-.081-2.421-.341-2.981-.561-.759-.299-1.28-.639-1.839-1.199a4.867 4.867 0 01-1.2-1.84c-.22-.56-.479-1.42-.56-2.98-.06-1.68-.081-2.199-.081-6.459 0-4.261.021-4.781.081-6.481.081-1.56.34-2.419.56-2.979.28-.76.639-1.28 1.2-1.841.559-.559 1.08-.919 1.839-1.197.56-.221 1.401-.481 2.961-.561 1.7-.06 2.2-.08 6.479-.08zm0 4.904A8.215 8.215 0 007.784 16c0 4.54 3.68 8.216 8.216 8.216 4.54 0 8.216-3.68 8.216-8.216 0-4.54-3.68-8.216-8.216-8.216zm0 13.549c-2.947 0-5.333-2.387-5.333-5.333s2.387-5.333 5.333-5.333 5.333 2.387 5.333 5.333-2.387 5.333-5.333 5.333zM26.461 7.46a1.921 1.921 0 01-3.84 0 1.92 1.92 0 013.84 0z"></path>
  </symbol>
  <symbol xmlns="http://www.w3.org/2000/svg" viewBox="0 0 32 32" id="lenovo">
    <title>lenovo</title>
    <path fill="#e2231a" d="M27.005 15.228h-.009a1.08 1.08 0 00-1.077 1.158v-.003l-.001.037c0 .612.492 1.11 1.102 1.119h.002a1.088 1.088 0 001.086-1.159v.003l.001-.037c0-.612-.492-1.109-1.103-1.117h-.001zm-8.68 0h-.009a1.08 1.08 0 00-1.077 1.158v-.003l-.001.037c0 .612.492 1.11 1.102 1.119h.002a1.088 1.088 0 001.086-1.159v.003l.001-.037c0-.612-.492-1.109-1.103-1.117h-.001zm-9.348-.069l-.037-.001c-.338 0-.638.16-.83.408l-.002.002a1.304 1.304 0 00-.227.989l-.001-.008 1.969-.816a.947.947 0 00-.87-.575h-.004zM0 10.667v10.667h32V10.667zm6.675 7.769H2.97v-5.333h1.143v4.299h2.563zm2.422-.828h.036c.44 0 .841-.165 1.145-.436l-.002.001.712.548a2.689 2.689 0 01-1.902.784H9.08a2.125 2.125 0 11-.12-4.238h-.004a2.049 2.049 0 011.62.665l.001.002c.261.314.438.706.492 1.136l.001.011-2.883 1.2a1.247 1.247 0 00.913.328h-.003zm6.511.828h-1.127V16.1a.906.906 0 00-.905-.869l-.047.001h.002a.872.872 0 00-.933.867v2.337h-1.124v-4.105h1.128v.588a1.7 1.7 0 011.333-.657h.001c.026-.002.057-.002.088-.002.873 0 1.58.707 1.58 1.58l-.001.054v-.003zm2.645.069a2.125 2.125 0 112.213-2.123 2.133 2.133 0 01-2.133 2.124l-.084-.002h.004zm3.734-.07l-1.689-4.104h1.288l1.019 2.8 1.019-2.8h1.288l-1.689 4.104zm4.948.07a2.125 2.125 0 112.213-2.123 2.133 2.133 0 01-2.133 2.124l-.084-.002h.004zm2.666-.557h-.188v.488H29.3v-.488h-.183v-.103h.483zm.722.488h-.109v-.42l-.183.284h-.017l-.181-.284v.42h-.109v-.591h.12l.179.28.179-.28h.117z"></path>
  </symbol>
  <symbol xmlns="http://www.w3.org/2000/svg" xmlns:xlink="http://www.w3.org/1999/xlink" viewBox="0 0 303.3 85" id="OnePlus_logo">
    <path d="M34.7 55.8v-5.3H40V34.6h-5.3v-5.4h10.6v21.2h5.4v5.3h-16zM69.2 69V34.5h-5.3v29.2H21.5V21.3h29.2V16H16.2v53h53zm0-39.8v-8h8V16h-8V8h-5.3v8h-8v5.3h8v8h5.3z" fill="#ea0029"></path>
    <defs>
      <path id="a" d="M0 0h303.3v85H0z"></path>
    </defs>
    <clipPath id="b">
      <use xlink:href="#a" overflow="visible"></use>
    </clipPath>
    <path d="M125.4 38.5c.4 1.2.6 2.5.6 4s-.2 2.8-.6 4c-.4 1.2-1 2.2-1.7 3-.7.8-1.6 1.4-2.7 1.9-1.1.4-2.2.7-3.6.7-1.3 0-2.5-.2-3.6-.7-1.1-.4-2-1.1-2.7-1.9-.7-.8-1.3-1.8-1.7-3-.4-1.2-.6-2.5-.6-4s.2-2.8.6-4c.4-1.2 1-2.2 1.7-3 .7-.8 1.6-1.5 2.7-1.9 1.1-.4 2.3-.7 3.6-.7 1.3 0 2.5.2 3.6.7 1.1.4 2 1.1 2.7 1.9.7.8 1.3 1.8 1.7 3m68.3-6.7h-4.4V43h4.4c1.1 0 2-.1 2.8-.4.8-.3 1.5-.7 2-1.2s1-1.1 1.2-1.8c.3-.7.4-1.5.4-2.3 0-1.7-.5-3.1-1.6-4.1-1-.9-2.6-1.4-4.8-1.4M287.1 69H87.7V16h199.4v53zM131.2 42.5c0-2-.3-3.8-1-5.5-.7-1.7-1.6-3.2-2.8-4.4-1.2-1.2-2.6-2.2-4.3-2.9-1.7-.7-3.6-1.1-5.6-1.1-2 0-3.9.4-5.6 1-1.7.7-3.1 1.7-4.4 2.9-1.2 1.2-2.1 2.7-2.8 4.4-.7 1.7-1 3.5-1 5.5s.3 3.8 1 5.5c.7 1.7 1.6 3.2 2.8 4.4 1.2 1.2 2.7 2.2 4.4 2.9 1.7.7 3.6 1 5.6 1 2 0 3.9-.3 5.6-1 1.7-.7 3.1-1.7 4.3-2.9 1.2-1.2 2.1-2.7 2.8-4.4.6-1.6 1-3.4 1-5.4M158 28.9h-4.4v17.7c0 .4.1.8.1 1.3l-14.2-18.1c-.1-.2-.3-.3-.4-.4-.1-.1-.2-.2-.3-.2-.1-.1-.2-.1-.4-.1h-3.2v27.1h4.4V38.3c0-.4-.1-.8-.1-1.2l14.2 18.1c.2.3.5.6.8.7.3.1.6.2 1 .2h2.6V28.9zm22.6 0h-17.1V56h17.1v-4h-12v-7.7h9.5v-3.9h-9.5V33h12v-4.1zm23.3 8.4c0-1.3-.2-2.4-.6-3.5-.4-1-1-1.9-1.9-2.7-.8-.7-1.9-1.3-3.2-1.7-1.3-.4-2.8-.6-4.5-.6h-8V56h3.7V45.9h4.4c1.6 0 3.1-.2 4.3-.6 1.3-.4 2.3-1 3.2-1.8.9-.8 1.5-1.7 1.9-2.7.4-1.1.7-2.2.7-3.5M224 53h-11.8V28.9h-3.7v27.2H224V53zm25.4-24.1h-3.7v16.5c0 1.1-.2 2.2-.5 3.1-.3.9-.8 1.8-1.4 2.5-.6.7-1.4 1.2-2.2 1.6-.9.4-1.9.6-3 .6s-2.1-.2-3-.6c-.9-.4-1.7-.9-2.3-1.6-.6-.7-1.1-1.5-1.4-2.4-.3-.9-.5-2-.5-3.1V28.9h-3.7v16.5c0 1.6.2 3 .7 4.4.5 1.3 1.2 2.5 2.2 3.5.9 1 2.1 1.8 3.4 2.3 1.3.6 2.8.8 4.5.8 1.7 0 3.2-.3 4.5-.8 1.3-.6 2.5-1.3 3.4-2.3.9-1 1.6-2.1 2.1-3.5.5-1.3.7-2.8.7-4.4V28.9zm21.8 18.9c0-1.1-.2-2.1-.6-2.8-.4-.8-.9-1.4-1.5-2-.6-.5-1.3-1-2.1-1.3-.8-.4-1.6-.7-2.4-.9-.8-.3-1.6-.5-2.4-.8-.8-.3-1.5-.6-2.1-.9-.6-.4-1.1-.8-1.5-1.3-.4-.5-.6-1.1-.6-1.9 0-.6.1-1.1.3-1.7.2-.5.5-1 1-1.3.4-.4 1-.7 1.6-.9.6-.2 1.4-.3 2.2-.3.9 0 1.6.1 2.2.3.6.2 1.1.5 1.6.7.4.3.8.5 1.1.7.3.2.5.3.7.3.2 0 .4 0 .5-.1.1-.1.3-.2.4-.4l.9-1.7c-.9-.9-2-1.6-3.3-2.1-1.2-.5-2.6-.7-4.2-.7-1.4 0-2.6.2-3.6.6-1 .4-1.9 1-2.6 1.7-.7.7-1.3 1.5-1.6 2.4-.4.9-.6 1.8-.6 2.8 0 1.2.2 2.2.6 3 .4.8.9 1.5 1.5 2s1.3 1 2.1 1.3l2.4.9c.8.3 1.6.5 2.4.8.8.2 1.5.5 2.1.9.6.4 1.1.8 1.5 1.3.4.5.6 1.2.6 2 0 .7-.1 1.4-.4 2-.3.6-.6 1.1-1.1 1.6-.5.4-1.1.8-1.7 1-.7.2-1.5.4-2.3.4-1.1 0-1.9-.1-2.7-.4-.7-.3-1.3-.6-1.9-.9-.5-.3-.9-.7-1.3-.9-.3-.3-.6-.4-.9-.4-.2 0-.3 0-.5.1-.1.1-.3.2-.4.3l-1.1 1.7c1 1.1 2.3 2 3.7 2.6 1.5.6 3 1 4.8 1 1.4 0 2.7-.2 3.9-.7 1.1-.4 2.1-1.1 2.9-1.8.8-.8 1.4-1.7 1.8-2.7.4-1.2.6-2.3.6-3.5" clip-path="url(#b)" fill="#ea0029"></path>
  </symbol>
  <symbol xmlns="http://www.w3.org/2000/svg" viewBox="0 0 4838 1606.3" id="Samsung_Logo">
    <path d="M4835 382.5c65.9 377.7-962.3 872.3-2296.8 1104.7C1203.9 1719.6 68.8 1601.7 3 1223.8-62.8 846.1 965.7 351.6 2300 119.3 3634.4-113.3 4769.3 4.7 4835 382.5z" fill="#034ea2"></path>
    <path d="M3579.1 943.1l-6.8-392.7h123.8v495h-178l-123.6-406.2h-2.7l6.9 406.2h-123.1v-495h185.8l115 392.7zm-2251-346.3l-68.5 453.8h-135.1l92.7-500.2h222.5l92.4 500.2h-134.6l-66.6-453.8zm583.3 336l61.8-382.4h204l10.8 500.2h-125l-3.3-449.7h-2.6l-83.6 449.7h-126.9l-83.7-449.7h-2.7l-3.1 449.7h-125.3l11.1-500.2H1847l61.7 382.4zm-997.5-23.3c4.9 12.1 3.4 27.7 1.1 37.1-4.2 16.6-15.5 33.6-48.7 33.6-31.4 0-50.4-18-50.4-45.4v-48.4H681.7l-.1 38.7c0 111.5 87.8 145.2 181.9 145.2 90.5 0 165-30.9 176.8-114.3 6.1-43.2 1.5-71.5-.5-82.2-21.1-104.7-211-136-225.1-194.5-2.4-10-1.7-20.7-.5-26.4 3.5-15.9 14.4-33.5 45.7-33.5 29.2 0 46.5 18.1 46.5 45.4v30.9h124.7v-35.1c0-109-97.8-126-168.6-126-89 0-161.7 29.4-175 110.8-3.6 22.5-4.1 42.5 1.1 67.6 21.9 102.1 199.5 131.7 225.3 196.5zm1626.5-.9c4.9 12 3.3 27.2 1.1 36.6-4.1 16.6-15.3 33.3-48.3 33.3-30.9 0-49.8-18-49.8-44.8l-.1-48h-132.8l-.2 38.2c0 110.4 87 143.7 180.1 143.7 89.5 0 163.3-30.5 175-113.1 6.1-42.9 1.8-70.8-.4-81.3-21-103.7-208.9-134.7-222.9-192.7-2.4-10-1.7-20.5-.5-25.9 3.6-16.1 14.3-33.2 45.3-33.2 29 0 45.9 17.6 45.9 44.8v30.6h123.8V662c0-107.8-97-124.7-167.2-124.7-88 0-160.1 29-173.1 109.9-3.6 22.2-4 41.8 1.2 66.8 21.5 101.1 197.4 130.5 222.9 194.6zm420.1 67.2c34.7 0 45.5-24 47.9-36.3 1-5.4 1.3-12.6 1.2-19.1V550.2h126.5V909c.3 9.2-.6 28.1-1.1 32.8-8.9 93.4-82.7 123.7-174.6 123.7-92 0-165.9-30.3-174.7-123.7-.4-4.7-1.3-23.7-1.1-32.8V550.2H2911v370.1c0 6.5.2 13.8 1.2 19.1 2.8 12.3 13.3 36.4 48.3 36.4zm1043.5-5.3c36.2 0 48.9-22.9 51.2-36.2.9-5.7 1.2-12.7 1.1-19v-72.6H4005v-73h177.4V904c-.1 9.4-.3 16.3-1.8 33-8.3 91-87.3 123.5-175.9 123.5-88.8 0-167.6-32.5-176.1-123.5-1.4-16.7-1.6-23.6-1.8-33l.1-210.6c0-8.9 1.1-24.6 2.1-33 11.1-93.5 86.9-123.6 175.7-123.6 88.7 0 166.4 29.9 175.6 123.6 1.6 15.9 1.1 33 1.1 33v16.7h-126.1v-28c.1.1-.2-11.9-1.6-19-2.1-11.1-11.7-36.5-49.9-36.5-36.5 0-47.1 24-49.8 36.5-1.5 6.6-2.1 15.5-2.1 23.6v228.8c-.1 6.3.3 13.3 1.3 19 2 13.1 14.6 36 50.8 36z"></path>
  </symbol>
  <symbol xmlns="http://www.w3.org/2000/svg" viewBox="0 0 32 32" id="telegram">
    <title>telegram</title>
    <path fill="#2ca5e0" d="M31.88 5.053l-4.813 22.733c-.333 1.613-1.307 2-2.667 1.253l-7.333-5.427-3.547 3.427c-.4.4-.733.747-1.467.747-.96 0-.8-.36-1.12-1.267L8.4 18.266l-7.267-2.267c-1.573-.467-1.587-1.547.347-2.333L29.827 2.733c1.293-.573 2.533.32 2.053 2.32z"></path>
  </symbol>
  <symbol xmlns="http://www.w3.org/2000/svg" viewBox="0 0 32 32" id="toshiba">
    <title>toshiba</title>
    <path fill="red" d="M6.899 13.563c-1.42 0-2.104.249-2.2 1.531-.019.251-.03.543-.03.838v.073-.004c0 .291.005.601.028.907.097 1.28.781 1.531 2.2 1.531 1.42 0 2.107-.251 2.204-1.531.024-.305.029-.616.029-.907 0-.289-.007-.601-.029-.907-.097-1.28-.784-1.531-2.203-1.531zm5.053 0c-.547 0-1.093.053-1.313.161-.429.208-.727.507-.727 1.36 0 .5.133.872.391 1.061.375.28.737.307 1.747.36.407.021.627.104.627.453 0 .443-.392.443-.752.443-.373 0-.488-.033-.613-.128-.112-.084-.14-.235-.141-.464H9.904c0 .649.013 1.179.627 1.445.547.24 2.227.24 2.731.019.437-.193.751-.449.751-1.325 0-.607-.121-.98-.587-1.255-.331-.196-1.26-.227-1.731-.256-.344-.021-.475-.147-.475-.451 0-.396.38-.411.707-.411.269 0 .453.024.585.14.051.052.115.132.117.409h1.263c0-.544-.019-1.131-.607-1.401-.233-.107-.783-.161-1.332-.161zm2.941.082v4.709h1.328v-1.816h1.541v1.816h1.328v-4.709h-1.328v1.72h-1.541v-1.72zm5.364 0v4.709h1.336v-4.709zm2.522 0v4.709h2.516c1.159 0 1.549-.501 1.549-1.269 0-.535-.123-1.007-.857-1.192.592-.152.765-.505.765-1.016 0-1.035-.649-1.232-1.575-1.232zm5.83 0l-1.424 4.709h1.383l.249-.873h1.547l.253.873H32l-1.427-4.709zM0 13.648v1.175h1.407v3.533h1.407v-3.533h1.407V13.65zm6.899 1.016c.557 0 .844.084.88.809.005.113.013.268.013.527 0 .26-.008.413-.013.527-.036.725-.323.809-.88.809s-.844-.084-.88-.809a9.702 9.702 0 01-.011-.47v-.059.003c0-.259.004-.413.011-.527.036-.725.323-.809.88-.809zm17.208.06h.92c.24 0 .391.113.391.388 0 .235-.149.38-.391.38h-.92zm5.481.085h.008l.472 1.627h-.951zm-5.48 1.61h.919c.372 0 .449.165.449.431s-.147.427-.449.427h-.92z"></path>
  </symbol>
  <symbol xmlns="http://www.w3.org/2000/svg" viewBox="0 0 32 32" id="twitter">
    <title>twitter</title>
    <path fill="#1da1f2" d="M31.939 6.092a13.31 13.31 0 01-3.767 1.033 6.613 6.613 0 002.884-3.631 13.55 13.55 0 01-4.169 1.579A6.56 6.56 0 0015.539 9.55c0 .52.06 1.02.169 1.499-5.453-.257-10.287-2.876-13.521-6.835a6.432 6.432 0 00-.888 3.3 6.56 6.56 0 002.917 5.461 6.554 6.554 0 01-2.971-.821v.081a6.564 6.564 0 005.261 6.436 6.663 6.663 0 01-2.949.113 6.582 6.582 0 006.139 4.556 13.156 13.156 0 01-8.136 2.807c-.52 0-1.039-.031-1.56-.089a18.657 18.657 0 0010.076 2.945c12.072 0 18.665-9.995 18.665-18.648 0-.279 0-.56-.02-.84 1.281-.919 2.4-2.08 3.28-3.397z"></path>
  </symbol>
  <symbol xmlns="http://www.w3.org/2000/svg" viewBox="0 0 52.917 52.917" id="Xiaomi_logo">
    <defs>
      <clipPath id="a">
        <path d="M0 595.28h841.89V0H0z"></path>
      </clipPath>
    </defs>
    <g transform="matrix(.35278 0 0 -.35278 -196.116 155.45)" clip-path="url(#a)">
      <path d="M700.203 290.654H561.596a5.694 5.694 0 00-5.694 5.694v138.617a5.693 5.693 0 005.694 5.693h138.607a5.693 5.693 0 005.694-5.693V296.348a5.694 5.694 0 00-5.694-5.694" fill="#ff6700" fill-rule="evenodd"></path>
      <g fill="#fff">
        <path d="M673.519 393.479h-11.8a.906.906 0 01-.915-.898v-53.844c0-.49.409-.893.914-.893h11.8c.502 0 .916.402.916.893v53.844a.91.91 0 01-.915.898m-40.292 0h-44.95a.903.903 0 01-.911-.898v-53.844c0-.49.406-.893.911-.893h11.804c.502 0 .918.402.918.893v42.26c0 .488.407.893.912.893h25.425c7.15 0 9.18-5.477 9.18-9.01v-34.143c0-.49.41-.893.915-.893h11.796c.503 0 .915.402.915.893v38.197c0 3.151-.38 7.682-4.444 11.67-4.253 4.163-8.133 4.875-12.471 4.875"></path>
        <path d="M624.959 372.032h-12.392c-.505 0-.92-.402-.92-.894v-32.405c0-.49.415-.892.92-.892h12.392c.501 0 .911.402.911.892v32.405c0 .492-.41.894-.911.894"></path>
      </g>
    </g>
  </symbol>
</svg>