<?xml version="1.0" standalone="no"?>
<!DOCTYPE svg PUBLIC "-//W3C//DTD SVG 20010904//EN"
 "http://www.w3.org/TR/2001/REC-SVG-20010904/DTD/svg10.dtd">
<svg version="1.0" xmlns="http://www.w3.org/2000/svg"
 width="1127.000000pt" height="1127.000000pt" viewBox="0 0 1127.000000 1127.000000"
 preserveAspectRatio="xMidYMid meet">
<metadata>
Created by potrace 1.11, written by Peter Selinger 2001-2013
</metadata>
<g transform="translate(0.000000,1127.000000) scale(0.100000,-0.100000)"
fill="#000000" stroke="none">
<path d="M727 8408 c-19 -29 -190 -296 -381 -593 -251 -388 -346 -543 -339
-553 5 -8 141 -100 303 -204 204 -133 298 -188 307 -182 7 5 69 96 138 203
l125 194 0 -2201 c0 -1210 3 -2207 6 -2216 5 -14 27 -16 140 -16 l134 0 0
2433 0 2434 93 144 92 144 3 -2578 2 -2578 138 3 137 3 0 2805 0 2805 -432 3
-432 2 -34 -52z"/>
<path d="M3793 8449 c-116 -18 -291 -67 -399 -113 -197 -84 -340 -181 -504
-346 -488 -486 -605 -1216 -295 -1835 74 -148 169 -278 291 -402 l101 -103
-101 -103 c-616 -624 -617 -1614 -1 -2233 117 -118 200 -183 325 -258 170
-101 400 -179 605 -207 140 -18 507 -7 629 20 481 104 886 415 1100 846 131
262 187 544 165 836 -29 381 -183 719 -457 998 l-102 104 73 71 c238 230 397
522 464 851 28 138 25 473 -5 611 -136 627 -591 1089 -1222 1241 -95 23 -128
26 -355 28 -137 2 -278 -1 -312 -6z m600 -293 c252 -59 454 -167 636 -342 291
-279 437 -666 401 -1056 -22 -235 -93 -435 -223 -628 -52 -76 -191 -228 -260
-282 l-38 -30 -94 43 c-52 24 -95 46 -95 49 1 3 22 18 48 35 65 41 203 175
261 254 236 318 286 742 132 1112 -67 161 -215 350 -360 460 -86 65 -264 153
-372 183 -231 65 -542 59 -769 -15 -267 -88 -503 -288 -640 -541 -49 -92 -95
-222 -111 -316 -17 -100 -15 -97 -50 -68 -36 30 -87 34 -124 10 -31 -20 -31
-17 -10 93 55 286 216 563 435 747 187 158 396 257 635 301 108 20 499 14 598
-9z m-73 -461 c94 -24 255 -106 328 -165 129 -106 236 -271 284 -436 19 -66
23 -103 22 -224 0 -173 -13 -230 -84 -375 -87 -175 -213 -300 -386 -385 -141
-70 -211 -83 -424 -83 -158 0 -197 3 -265 21 -283 77 -503 284 -595 560 -28
81 -34 116 -38 218 -5 134 5 215 42 324 98 290 371 515 681 563 72 12 371 -1
435 -18z m-993 -2257 c51 -24 92 -45 93 -48 0 -3 -20 -18 -45 -34 -25 -15 -82
-63 -127 -105 -184 -173 -301 -388 -344 -636 -23 -132 -15 -338 19 -468 101
-383 401 -691 779 -801 222 -64 535 -62 754 5 352 108 649 409 750 762 l17 62
28 -27 c21 -22 37 -28 69 -28 23 0 50 5 61 10 27 15 25 -1 -12 -112 -57 -170
-145 -323 -261 -453 -164 -185 -344 -304 -571 -380 -154 -51 -252 -65 -467
-65 -285 0 -434 32 -647 140 -141 71 -228 135 -344 250 -179 181 -304 418
-356 678 -24 121 -24 367 0 481 52 242 148 441 301 621 48 56 192 189 206 190
3 0 46 -19 97 -42z m997 -187 c291 -76 524 -304 606 -591 30 -103 37 -279 17
-385 -61 -325 -298 -579 -622 -670 -93 -26 -347 -32 -460 -10 -334 62 -597
310 -675 637 -27 114 -27 283 0 398 79 330 361 586 705 640 100 15 338 5 429
-19z"/>
<path d="M7960 8443 c-93 -12 -238 -46 -331 -79 -563 -195 -964 -658 -1091
-1259 l-23 -110 -3 -1220 c-3 -1275 1 -1459 38 -1638 135 -650 631 -1146 1285
-1287 154 -34 422 -39 580 -12 372 64 665 219 927 490 174 180 299 389 377
629 82 250 76 127 76 1688 l0 1390 -22 101 c-130 585 -527 1035 -1083 1229
-178 61 -270 76 -495 80 -110 2 -216 1 -235 -2z m426 -288 c294 -51 551 -188
761 -408 178 -186 285 -388 346 -652 21 -88 21 -113 24 -1270 l4 -1179 -24 22
c-35 33 -80 38 -122 14 l-35 -21 0 1112 c0 1218 0 1213 -59 1398 -60 187 -158
347 -296 485 -206 204 -473 323 -769 340 -561 34 -1079 -355 -1207 -905 l-21
-90 -24 29 c-31 37 -74 46 -115 26 -18 -9 -33 -16 -35 -16 -1 0 5 30 13 68 74
333 281 636 568 832 148 100 357 186 526 214 116 19 355 20 465 1z m-65 -451
c171 -32 328 -114 457 -238 83 -79 143 -163 191 -268 49 -107 69 -181 81 -304
5 -57 10 -607 10 -1295 0 -1026 -2 -1209 -15 -1284 -59 -334 -298 -597 -641
-701 -80 -25 -105 -28 -244 -28 -188 -1 -247 12 -405 89 -238 116 -406 322
-477 585 l-23 85 0 1325 0 1325 32 95 c92 269 296 484 547 575 154 56 326 70
487 39z"/>
<path d="M10545 8434 c-117 -26 -209 -77 -300 -169 -133 -133 -181 -259 -172
-450 8 -170 59 -288 175 -400 339 -328 892 -166 1008 295 12 48 15 91 11 165
-8 152 -56 267 -157 378 -139 152 -367 225 -565 181z m261 -317 c111 -56 170
-163 162 -291 -6 -82 -28 -133 -84 -188 -73 -74 -192 -106 -291 -79 -147 40
-243 193 -215 344 37 196 252 303 428 214z m-442 -63 l24 -6 -26 -51 c-54
-109 -39 -263 36 -362 114 -150 321 -186 476 -84 l44 30 25 -25 25 -25 -51
-35 c-216 -148 -520 -67 -631 169 -61 127 -54 288 17 404 19 32 21 33 28 13 5
-12 19 -24 33 -28z"/>
</g>
</svg>
