<svg id="_180logo" data-name="180logo" xmlns="http://www.w3.org/2000/svg" xmlns:xlink="http://www.w3.org/1999/xlink" viewBox="0 0 1126.59001 563.9744"><defs><style>.cls-1{fill:url(#Безымянный_градиент_30);}.cls-2{fill:url(#Безымянный_градиент_30-2);}.cls-3{fill:url(#Безымянный_градиент_30-3);}.cls-4{fill:url(#Безымянный_градиент_30-4);}.cls-5{fill:url(#Безымянный_градиент_30-5);}</style><linearGradient id="Безымянный_градиент_30" x1="1107" y1="428" x2="1227" y2="428" gradientUnits="userSpaceOnUse"><stop offset="0" stop-color="#00bfff"/><stop offset="0.04925" stop-color="#08b7fd"/><stop offset="0.50817" stop-color="#4e6cef"/><stop offset="0.83642" stop-color="#793de6"/><stop offset="1" stop-color="#8a2be2"/></linearGradient><linearGradient id="Безымянный_градиент_30-2" x1="100.40999" y1="647.39996" x2="262.66998" y2="647.39996" xlink:href="#Безымянный_градиент_30"/><linearGradient id="Безымянный_градиент_30-3" x1="342.81" y1="647.38998" x2="671.39001" y2="647.38998" xlink:href="#Безымянный_градиент_30"/><linearGradient id="Безымянный_градиент_30-4" x1="794.67713" y1="528.51001" x2="798.03003" y2="528.51001" xlink:href="#Безымянный_градиент_30"/><linearGradient id="Безымянный_градиент_30-5" x1="751.59003" y1="648.85716" x2="1080.17993" y2="648.85716" xlink:href="#Безымянный_градиент_30"/></defs><path class="cls-1" d="M1167,368a60,60,0,1,0,60,60A59.99626,59.99626,0,0,0,1167,368Zm.5,29a30.5,30.5,0,1,1-30.5,30.5A30.50592,30.50592,0,0,1,1167.5,397Zm-34.36,3.83A5.06455,5.06455,0,0,0,1133,402a5.00181,5.00181,0,0,0,5,5,4.9456,4.9456,0,0,0,2.53-.69,35.00007,35.00007,0,0,0,52.62,46.03,4.44672,4.44672,0,0,0-.15,1.16,4.494,4.494,0,0,0,4.5,4.5,4.4426,4.4426,0,0,0,1.15991-.15,43.49655,43.49655,0,0,1-65.5199-57.02Z" transform="translate(-100.40999 -366.39996)"/><path class="cls-2" d="M262.67,368.4V926.41a1.99509,1.99509,0,0,1-3.18,1.59H238.66a1.95969,1.95969,0,0,1-1.19.4,1.98664,1.98664,0,0,1-1.99-1.98V411.13l-19.24,29.84V926.42a1.98449,1.98449,0,0,1-1.98,1.98,2.01169,2.01169,0,0,1-1.2-.4H192.24a1.95984,1.95984,0,0,1-1.19.4,1.98028,1.98028,0,0,1-1.99-1.98V483.12l-26.48,41.07a1.9578,1.9578,0,0,1-1.25.86,1.84262,1.84262,0,0,1-.41.05,1.977,1.977,0,0,1-1.07995-.32l-58.52-37.74a1.97518,1.97518,0,0,1-.59-2.74l75.43-116.99a2.0171,2.0171,0,0,1,1.67005-.91h82.85a2.31828,2.31828,0,0,1,.38.05.03692.03692,0,0,0,.03.01c.1.02.21.06.31.09.04.02.07.03.11.05a1.43113,1.43113,0,0,1,.27.15.431.431,0,0,1,.07.06,1.846,1.846,0,0,1,.38.36c.04.06.09.11.13.18a.69554.69554,0,0,1,.06.09.41754.41754,0,0,1,.04.1,1.36068,1.36068,0,0,1,.11.28.87867.87867,0,0,1,.05.15A2.02265,2.02265,0,0,1,262.67,368.4Z" transform="translate(-100.40999 -366.39996)"/><path class="cls-3" d="M614.01,647.27a158.15666,158.15666,0,0,0,57.11-121.98c0-87.61-71.28-158.89-158.9-158.89H501.7c-87.61,0-158.89,71.28-158.89,158.89a158.61393,158.61393,0,0,0,57.33,122.1,159.88637,159.88637,0,0,0-41.79,53.6,157.85409,157.85409,0,0,0-15.54,68.49v.01c0,87.61,71.28,158.89,158.89,158.89h10.8c87.61,0,158.89-71.28,158.89-158.9A158.25514,158.25514,0,0,0,614.01,647.27ZM512.5,854.78l-10.81.01a85.38749,85.38749,0,0,1-85.29-85.3c0-.01-.01-.02-.01-.04a85.39615,85.39615,0,0,1,85.28-85.26H512.5a85.295,85.295,0,0,1,0,170.59Zm-.01-244.19H501.7a85.295,85.295,0,1,1,0-170.59h10.52a85.29519,85.29519,0,0,1,.27,170.59ZM389.68,515.41v.01c-.02.25-.05.49-.07.74-.09-.33-.2-.64-.32-.96a8.81919,8.81919,0,0,0-.61-1.28c-.07-.12-.13-.23-.19-.34a.03081.03081,0,0,1-.01-.02,12.19,12.19,0,0,0-1.08-1.48.00976.00976,0,0,1-.01-.01,10.60091,10.60091,0,0,0-4.92-3.14,10.47412,10.47412,0,0,0-11.8,4.41,1.76,1.76,0,0,0-.13995.23c.03-.39.07-.79.11-1.18v-.01c6.59-66.51,62.85-118.61,131.06-118.61l10.81-.01c72.62,0,131.71,59.09,131.71,131.72v.03A131.60194,131.60194,0,0,1,590.71,631.41a158.28083,158.28083,0,0,0-20.13-9.63,112.54562,112.54562,0,0,0,54.41-96.3c0-.02-.01-.04-.01-.06A112.60108,112.60108,0,0,0,512.51,413H501.7A112.61654,112.61654,0,0,0,389.68,515.41ZM512.5,901.2l-10.81.01c-72.62,0-131.71-59.09-131.71-131.72v-.03a131.602,131.602,0,0,1,53.51-105.9,158.27641,158.27641,0,0,0,20.13,9.63,112.54547,112.54547,0,0,0-54.41,96.3c0,.02.01.04.01.06A112.60117,112.60117,0,0,0,501.69,881.97H512.5a112.65165,112.65165,0,0,0,109.98-88.89,10.09216,10.09216,0,0,0,2.57,4.3,9.59364,9.59364,0,0,0,1.71,1.4.0098.0098,0,0,0,.01.01c.06.04.13.08.19995.12,0,0,.01.03.02.03a10.49567,10.49567,0,0,0,14.36-3.3c.13-.2.26-.41.38-.63C629.81,855.47,576.4,901.2,512.5,901.2Z" transform="translate(-100.40999 -366.39996)"/><path class="cls-4" d="M798.03,528.51h0Z" transform="translate(-100.40999 -366.39996)"/><path class="cls-5" d="M1049.75,436.22a166.0218,166.0218,0,0,0-55.34-49.03,164.354,164.354,0,0,0-78.33-19.85c-69.86,0-129.67,43.89-153.29,105.55-.09.24-.19.48-.28.73a163.31731,163.31731,0,0,0-10.92,58.88V649.85l.41,57.4v57.98a166.76719,166.76719,0,0,0,31.53,97.22,163.86634,163.86634,0,0,0,134.15,67.92c.17,0,.35,0,.52-.01,68.6-1.03,127.12006-44.37,150.58-105.02.16992-.44.34-.87.51-1.31a163.33555,163.33555,0,0,0,10.88989-58.8V531.43A162.96206,162.96206,0,0,0,1049.75,436.22Zm-43.17,329.01a90.09844,90.09844,0,0,1-7.12,35.19c-.21.49-.42.97-.64,1.45a90.82322,90.82322,0,0,1-61.99,50.6c-.1.03-.2.05-.3.07A90.50654,90.50654,0,0,1,825,764.5c0-1.95.06-3.89.19-5.81V649.5l-.84-118.35v-.02a89.88631,89.88631,0,0,1,10.76-43.38c.23-.41.46-.83.68-1.25.5-.87.99-1.74,1.51-2.6.7-1.16,1.42-2.31,2.17-3.43a90.52379,90.52379,0,0,1,105.65-35.55c.32.1.64.21.96.34a88.76,88.76,0,0,1,15.97,7.52l-.03.08A90.44282,90.44282,0,0,1,1006,530.5c0,2.5.18,4.12.18,4.12V648.13l.4,56.34Zm46.01007-15.06a9.99226,9.99226,0,0,0-18.83008-.97V531.43a116.96545,116.96545,0,0,0-9.66992-46.7c-.25006-.58-.51007-1.17-.77008-1.75a117.66131,117.66131,0,0,0-224.34,32.44,9.85052,9.85052,0,0,0-.6-2.88v-.01a9.99741,9.99741,0,0,0-17.55-2.29c10.22-65.48,66.97-115.72,135.26-115.72a137.1018,137.1018,0,0,1,125.47,82.13c.09985.23.19995.45.28992.67005a136.27659,136.27659,0,0,1,10.74011,53.17Z" transform="translate(-100.40999 -366.39996)"/></svg>