<svg id="180logo" data-name="Слой 1" xmlns="http://www.w3.org/2000/svg" xmlns:xlink="http://www.w3.org/1999/xlink" viewBox="0 0 1126.59 563.97"><defs><style>.cls-1{fill:url(#Безымянный_градиент_30);}.cls-2{fill:url(#Безымянный_градиент_30-2);}.cls-3{fill:url(#Безымянный_градиент_30-3);}.cls-4{fill:url(#Безымянный_градиент_30-4);}.cls-5{fill:url(#Безымянный_градиент_30-5);}</style><linearGradient id="Безымянный_градиент_30" x1="1107" y1="428" x2="1227" y2="428" gradientUnits="userSpaceOnUse"><stop offset="0" stop-color="#00bfff"/><stop offset="0.05" stop-color="#08b7fd"/><stop offset="0.51" stop-color="#4e6cef"/><stop offset="0.84" stop-color="#793de6"/><stop offset="1" stop-color="#8a2be2"/></linearGradient><linearGradient id="Безымянный_градиент_30-2" x1="100.41" y1="647.4" x2="262.67" y2="647.4" xlink:href="#Безымянный_градиент_30"/><linearGradient id="Безымянный_градиент_30-3" x1="342.81" y1="647.39" x2="671.39" y2="647.39" xlink:href="#Безымянный_градиент_30"/><linearGradient id="Безымянный_градиент_30-4" x1="794.68" y1="528.51" x2="798.03" y2="528.51" xlink:href="#Безымянный_градиент_30"/><linearGradient id="Безымянный_градиент_30-5" x1="751.59" y1="648.86" x2="1080.18" y2="648.86" xlink:href="#Безымянный_градиент_30"/></defs><path class="cls-1" d="M1167,368a60,60,0,1,0,60,60A60,60,0,0,0,1167,368Zm.5,29a30.5,30.5,0,1,1-30.5,30.5A30.51,30.51,0,0,1,1167.5,397Zm-34.36,3.83A5.06,5.06,0,0,0,1133,402a5,5,0,0,0,5,5,5,5,0,0,0,2.53-.69,35,35,0,0,0,52.62,46,4.45,4.45,0,0,0-.15,1.16,4.49,4.49,0,0,0,4.5,4.5,4.45,4.45,0,0,0,1.16-.15,43.5,43.5,0,0,1-65.52-57Z" transform="translate(-100.41 -366.4)"/><path class="cls-2" d="M262.67,368.4v558a2,2,0,0,1-3.18,1.59H238.66a2,2,0,0,1-1.19.4,2,2,0,0,1-2-2V411.13L216.24,441V926.42a2,2,0,0,1-2,2,2,2,0,0,1-1.2-.4H192.24a2,2,0,0,1-1.19.4,2,2,0,0,1-2-2V483.12l-26.48,41.07a2,2,0,0,1-1.25.86,1.84,1.84,0,0,1-.41.05,2,2,0,0,1-1.08-.32L101.32,487a2,2,0,0,1-.59-2.74l75.43-117a2,2,0,0,1,1.67-.91h82.85a2.32,2.32,0,0,1,.38.05h0l.31.09.11.05a1.43,1.43,0,0,1,.27.15l.07.06a1.85,1.85,0,0,1,.38.36c0,.06.09.11.13.18l.06.09a.42.42,0,0,1,0,.1,1.36,1.36,0,0,1,.11.28.88.88,0,0,1,.05.15A2,2,0,0,1,262.67,368.4Z" transform="translate(-100.41 -366.4)"/><path class="cls-3" d="M614,647.27a158.16,158.16,0,0,0,57.11-122c0-87.61-71.28-158.89-158.9-158.89H501.7c-87.61,0-158.89,71.28-158.89,158.89a158.61,158.61,0,0,0,57.33,122.1A159.89,159.89,0,0,0,358.35,701a157.85,157.85,0,0,0-15.54,68.49h0c0,87.61,71.28,158.89,158.89,158.89h10.8c87.61,0,158.89-71.28,158.89-158.9A158.26,158.26,0,0,0,614,647.27ZM512.5,854.78H501.69a85.39,85.39,0,0,1-85.29-85.3s0,0,0,0a85.4,85.4,0,0,1,85.28-85.26H512.5a85.3,85.3,0,0,1,0,170.59Zm0-244.19H501.7a85.3,85.3,0,1,1,0-170.59h10.52a85.3,85.3,0,0,1,.27,170.59ZM389.68,515.41h0c0,.25-.05.49-.07.74-.09-.33-.2-.64-.32-1a8.82,8.82,0,0,0-.61-1.28l-.19-.34a0,0,0,0,1,0,0,12.19,12.19,0,0,0-1.08-1.48h0a10.6,10.6,0,0,0-4.92-3.14,10.47,10.47,0,0,0-11.8,4.41,1.76,1.76,0,0,0-.14.23c0-.39.07-.79.11-1.18h0c6.59-66.51,62.85-118.61,131.06-118.61h10.81c72.62,0,131.71,59.09,131.71,131.72v0a131.6,131.6,0,0,1-53.51,105.9,158.27,158.27,0,0,0-20.13-9.63A112.55,112.55,0,0,0,625,525.48s0,0,0-.06A112.6,112.6,0,0,0,512.51,413H501.7A112.62,112.62,0,0,0,389.68,515.41ZM512.5,901.2H501.69C429.07,901.21,370,842.12,370,769.49v0a131.6,131.6,0,0,1,53.51-105.9,158.27,158.27,0,0,0,20.13,9.63,112.55,112.55,0,0,0-54.41,96.3s0,0,0,.06A112.6,112.6,0,0,0,501.69,882H512.5a112.65,112.65,0,0,0,110-88.89,10.09,10.09,0,0,0,2.57,4.3,9.59,9.59,0,0,0,1.71,1.4h0l.2.12s0,0,0,0a10.5,10.5,0,0,0,14.36-3.3c.13-.2.26-.41.38-.63C629.81,855.47,576.4,901.2,512.5,901.2Z" transform="translate(-100.41 -366.4)"/><path class="cls-4" d="M798,528.51h0Z" transform="translate(-100.41 -366.4)"/><path class="cls-5" d="M1049.75,436.22a166,166,0,0,0-55.34-49,164.35,164.35,0,0,0-78.33-19.85c-69.86,0-129.67,43.89-153.29,105.55-.09.24-.19.48-.28.73a163.32,163.32,0,0,0-10.92,58.88V649.85l.41,57.4v58a166.77,166.77,0,0,0,31.53,97.22,163.87,163.87,0,0,0,134.15,67.92h.52c68.6-1,127.12-44.37,150.58-105l.51-1.31a163.34,163.34,0,0,0,10.89-58.8V531.43A163,163,0,0,0,1049.75,436.22Zm-43.17,329a90.1,90.1,0,0,1-7.12,35.19c-.21.49-.42,1-.64,1.45a90.82,90.82,0,0,1-62,50.6l-.3.07A90.51,90.51,0,0,1,825,764.5c0-2,.06-3.89.19-5.81V649.5l-.84-118.35v0a89.89,89.89,0,0,1,10.76-43.38c.23-.41.46-.83.68-1.25.5-.87,1-1.74,1.51-2.6.7-1.16,1.42-2.31,2.17-3.43a90.52,90.52,0,0,1,105.65-35.55c.32.1.64.21,1,.34a88.76,88.76,0,0,1,16,7.52l0,.08a90.44,90.44,0,0,1,44,77.64c0,2.5.18,4.12.18,4.12V648.13l.4,56.34Zm46-15.06a10,10,0,0,0-18.83-1V531.43a117,117,0,0,0-9.67-46.7c-.25-.58-.51-1.17-.77-1.75A117.66,117.66,0,0,0,799,515.42a9.85,9.85,0,0,0-.6-2.88h0a10,10,0,0,0-17.55-2.29c10.22-65.48,67-115.72,135.26-115.72a137.1,137.1,0,0,1,125.47,82.13c.1.23.2.45.29.67a136.28,136.28,0,0,1,10.74,53.17Z" transform="translate(-100.41 -366.4)"/></svg>